<mxfile host="app.diagrams.net" modified="2024-01-22T22:44:45.096Z" agent="Mozilla/5.0 (Windows NT 10.0; Win64; x64) AppleWebKit/537.36 (KHTML, like Gecko) Chrome/120.0.0.0 Safari/537.36" etag="ryqB48EX2lh6kd-mwLzn" version="22.1.21" type="device">
  <diagram id="6a731a19-8d31-9384-78a2-239565b7b9f0" name="Page-1">
    <mxGraphModel dx="2082" dy="228" grid="1" gridSize="10" guides="1" tooltips="1" connect="1" arrows="1" fold="1" page="1" pageScale="1" pageWidth="827" pageHeight="1169" background="none" math="0" shadow="0">
      <root>
        <mxCell id="0" />
        <mxCell id="1" parent="0" />
        <mxCell id="gog2KQi0PHtg9QcvCmXd-71" value="" style="ellipse;whiteSpace=wrap;html=1;fillColor=#dae8fc;strokeColor=#6c8ebf;" vertex="1" parent="1">
          <mxGeometry x="250" y="35" width="230" height="220" as="geometry" />
        </mxCell>
        <mxCell id="gog2KQi0PHtg9QcvCmXd-65" value="" style="rounded=1;whiteSpace=wrap;html=1;" vertex="1" parent="1">
          <mxGeometry x="1900" y="860" width="380" height="510" as="geometry" />
        </mxCell>
        <mxCell id="gog2KQi0PHtg9QcvCmXd-1" value="" style="ellipse;shape=cloud;whiteSpace=wrap;html=1;fillColor=#f8cecc;strokeColor=#b85450;" vertex="1" parent="1">
          <mxGeometry x="490.5" y="20" width="350" height="200" as="geometry" />
        </mxCell>
        <mxCell id="gog2KQi0PHtg9QcvCmXd-3" value="" style="shape=mxgraph.cisco.security.ios_firewall;sketch=0;html=1;pointerEvents=1;dashed=0;fillColor=#036897;strokeColor=#ffffff;strokeWidth=2;verticalLabelPosition=bottom;verticalAlign=top;align=center;outlineConnect=0;" vertex="1" parent="1">
          <mxGeometry x="616" y="285" width="100" height="160" as="geometry" />
        </mxCell>
        <mxCell id="gog2KQi0PHtg9QcvCmXd-6" value="" style="shape=mxgraph.cisco.switches.layer_3_switch;sketch=0;html=1;pointerEvents=1;dashed=0;fillColor=#036897;strokeColor=#ffffff;strokeWidth=2;verticalLabelPosition=bottom;verticalAlign=top;align=center;outlineConnect=0;" vertex="1" parent="1">
          <mxGeometry x="810" y="585" width="122" height="120" as="geometry" />
        </mxCell>
        <mxCell id="gog2KQi0PHtg9QcvCmXd-9" value="" style="shape=mxgraph.cisco.switches.layer_3_switch;sketch=0;html=1;pointerEvents=1;dashed=0;fillColor=#036897;strokeColor=#ffffff;strokeWidth=2;verticalLabelPosition=bottom;verticalAlign=top;align=center;outlineConnect=0;" vertex="1" parent="1">
          <mxGeometry x="1140" y="880" width="130" height="130" as="geometry" />
        </mxCell>
        <mxCell id="gog2KQi0PHtg9QcvCmXd-13" value="" style="shape=mxgraph.cisco.switches.layer_3_switch;sketch=0;html=1;pointerEvents=1;dashed=0;fillColor=#036897;strokeColor=#ffffff;strokeWidth=2;verticalLabelPosition=bottom;verticalAlign=top;align=center;outlineConnect=0;" vertex="1" parent="1">
          <mxGeometry x="1930" y="882.5" width="130" height="120" as="geometry" />
        </mxCell>
        <mxCell id="gog2KQi0PHtg9QcvCmXd-19" value="" style="shape=mxgraph.cisco.routers.wireless_router;sketch=0;html=1;pointerEvents=1;dashed=0;fillColor=#036897;strokeColor=#ffffff;strokeWidth=2;verticalLabelPosition=bottom;verticalAlign=top;align=center;outlineConnect=0;" vertex="1" parent="1">
          <mxGeometry x="880" y="326.5" width="78" height="77" as="geometry" />
        </mxCell>
        <mxCell id="gog2KQi0PHtg9QcvCmXd-33" value="" style="shape=mxgraph.cisco.switches.layer_3_switch;sketch=0;html=1;pointerEvents=1;dashed=0;fillColor=#036897;strokeColor=#ffffff;strokeWidth=2;verticalLabelPosition=bottom;verticalAlign=top;align=center;outlineConnect=0;" vertex="1" parent="1">
          <mxGeometry x="626" y="880" width="130" height="130" as="geometry" />
        </mxCell>
        <mxCell id="gog2KQi0PHtg9QcvCmXd-34" value="" style="shape=mxgraph.cisco.switches.layer_3_switch;sketch=0;html=1;pointerEvents=1;dashed=0;fillColor=#036897;strokeColor=#ffffff;strokeWidth=2;verticalLabelPosition=bottom;verticalAlign=top;align=center;outlineConnect=0;" vertex="1" parent="1">
          <mxGeometry x="370" y="580" width="130" height="130" as="geometry" />
        </mxCell>
        <mxCell id="gog2KQi0PHtg9QcvCmXd-36" value="" style="shape=flexArrow;endArrow=classic;startArrow=classic;html=1;rounded=0;entryX=0.31;entryY=0.8;entryDx=0;entryDy=0;entryPerimeter=0;exitX=0.09;exitY=0.04;exitDx=0;exitDy=0;exitPerimeter=0;fillColor=#f5f5f5;strokeColor=#666666;" edge="1" parent="1" source="gog2KQi0PHtg9QcvCmXd-3">
          <mxGeometry width="100" height="100" relative="1" as="geometry">
            <mxPoint x="536" y="345" as="sourcePoint" />
            <mxPoint x="624.5" y="175" as="targetPoint" />
          </mxGeometry>
        </mxCell>
        <mxCell id="gog2KQi0PHtg9QcvCmXd-37" value="" style="shape=flexArrow;endArrow=classic;startArrow=classic;html=1;rounded=0;exitX=0.16;exitY=0.55;exitDx=0;exitDy=0;exitPerimeter=0;fillColor=#f5f5f5;strokeColor=#666666;" edge="1" parent="1" target="gog2KQi0PHtg9QcvCmXd-51">
          <mxGeometry width="100" height="100" relative="1" as="geometry">
            <mxPoint x="572" y="125" as="sourcePoint" />
            <mxPoint x="435" y="125" as="targetPoint" />
          </mxGeometry>
        </mxCell>
        <mxCell id="gog2KQi0PHtg9QcvCmXd-38" value="" style="shape=flexArrow;endArrow=classic;startArrow=classic;html=1;rounded=0;entryX=0.16;entryY=0.55;entryDx=0;entryDy=0;exitX=0.31;exitY=0.8;exitDx=0;exitDy=0;exitPerimeter=0;entryPerimeter=0;fillColor=#f5f5f5;strokeColor=#666666;" edge="1" parent="1">
          <mxGeometry width="100" height="100" relative="1" as="geometry">
            <mxPoint x="624.5" y="175" as="sourcePoint" />
            <mxPoint x="572" y="125" as="targetPoint" />
          </mxGeometry>
        </mxCell>
        <mxCell id="gog2KQi0PHtg9QcvCmXd-42" value="" style="endArrow=classic;startArrow=classic;html=1;rounded=0;entryX=0.93;entryY=0.95;entryDx=0;entryDy=0;entryPerimeter=0;exitX=0.5;exitY=0;exitDx=0;exitDy=0;exitPerimeter=0;" edge="1" parent="1" source="gog2KQi0PHtg9QcvCmXd-6" target="gog2KQi0PHtg9QcvCmXd-3">
          <mxGeometry width="50" height="50" relative="1" as="geometry">
            <mxPoint x="800" y="560" as="sourcePoint" />
            <mxPoint x="850" y="510" as="targetPoint" />
          </mxGeometry>
        </mxCell>
        <mxCell id="gog2KQi0PHtg9QcvCmXd-43" value="" style="endArrow=classic;startArrow=classic;html=1;rounded=0;entryX=0;entryY=0.5;entryDx=0;entryDy=0;entryPerimeter=0;exitX=1;exitY=0;exitDx=0;exitDy=0;exitPerimeter=0;" edge="1" parent="1" source="gog2KQi0PHtg9QcvCmXd-6" target="gog2KQi0PHtg9QcvCmXd-13">
          <mxGeometry width="50" height="50" relative="1" as="geometry">
            <mxPoint x="1134.5" y="710" as="sourcePoint" />
            <mxPoint x="1134.5" y="590" as="targetPoint" />
          </mxGeometry>
        </mxCell>
        <mxCell id="gog2KQi0PHtg9QcvCmXd-44" value="" style="endArrow=classic;startArrow=classic;html=1;rounded=0;entryX=0.95;entryY=0.94;entryDx=0;entryDy=0;entryPerimeter=0;exitX=0.08;exitY=0.05;exitDx=0;exitDy=0;exitPerimeter=0;" edge="1" parent="1" source="gog2KQi0PHtg9QcvCmXd-9" target="gog2KQi0PHtg9QcvCmXd-6">
          <mxGeometry width="50" height="50" relative="1" as="geometry">
            <mxPoint x="970" y="820" as="sourcePoint" />
            <mxPoint x="970" y="700" as="targetPoint" />
          </mxGeometry>
        </mxCell>
        <mxCell id="gog2KQi0PHtg9QcvCmXd-45" value="" style="endArrow=classic;startArrow=classic;html=1;rounded=0;entryX=0;entryY=1;entryDx=0;entryDy=0;entryPerimeter=0;exitX=0.5;exitY=0;exitDx=0;exitDy=0;exitPerimeter=0;" edge="1" parent="1" source="gog2KQi0PHtg9QcvCmXd-33" target="gog2KQi0PHtg9QcvCmXd-6">
          <mxGeometry width="50" height="50" relative="1" as="geometry">
            <mxPoint x="800" y="840" as="sourcePoint" />
            <mxPoint x="800" y="720" as="targetPoint" />
          </mxGeometry>
        </mxCell>
        <mxCell id="gog2KQi0PHtg9QcvCmXd-47" value="" style="endArrow=classic;startArrow=classic;html=1;rounded=0;entryX=0;entryY=0.5;entryDx=0;entryDy=0;entryPerimeter=0;exitX=1;exitY=0.5;exitDx=0;exitDy=0;exitPerimeter=0;" edge="1" parent="1" source="gog2KQi0PHtg9QcvCmXd-34" target="gog2KQi0PHtg9QcvCmXd-6">
          <mxGeometry width="50" height="50" relative="1" as="geometry">
            <mxPoint x="300" y="910" as="sourcePoint" />
            <mxPoint x="770" y="650" as="targetPoint" />
          </mxGeometry>
        </mxCell>
        <mxCell id="gog2KQi0PHtg9QcvCmXd-48" value="" style="endArrow=classic;startArrow=classic;html=1;rounded=0;exitX=1;exitY=0;exitDx=0;exitDy=0;exitPerimeter=0;entryX=0.55;entryY=0.95;entryDx=0;entryDy=0;entryPerimeter=0;" edge="1" parent="1" source="gog2KQi0PHtg9QcvCmXd-3">
          <mxGeometry width="50" height="50" relative="1" as="geometry">
            <mxPoint x="731" y="285" as="sourcePoint" />
            <mxPoint x="708.5" y="205" as="targetPoint" />
          </mxGeometry>
        </mxCell>
        <mxCell id="gog2KQi0PHtg9QcvCmXd-49" value="" style="endArrow=classic;startArrow=classic;html=1;rounded=0;exitX=0;exitY=0.5;exitDx=0;exitDy=0;exitPerimeter=0;entryX=1;entryY=0.5;entryDx=0;entryDy=0;entryPerimeter=0;" edge="1" parent="1" source="gog2KQi0PHtg9QcvCmXd-19" target="gog2KQi0PHtg9QcvCmXd-3">
          <mxGeometry width="50" height="50" relative="1" as="geometry">
            <mxPoint x="783" y="445" as="sourcePoint" />
            <mxPoint x="756" y="365" as="targetPoint" />
          </mxGeometry>
        </mxCell>
        <mxCell id="gog2KQi0PHtg9QcvCmXd-50" value="" style="endArrow=classic;startArrow=classic;html=1;rounded=0;exitX=0.5;exitY=0.32;exitDx=0;exitDy=0;exitPerimeter=0;entryX=0.55;entryY=0.95;entryDx=0;entryDy=0;entryPerimeter=0;" edge="1" parent="1" source="gog2KQi0PHtg9QcvCmXd-19" target="gog2KQi0PHtg9QcvCmXd-54">
          <mxGeometry width="50" height="50" relative="1" as="geometry">
            <mxPoint x="906" y="245" as="sourcePoint" />
            <mxPoint x="826" y="245" as="targetPoint" />
          </mxGeometry>
        </mxCell>
        <mxCell id="gog2KQi0PHtg9QcvCmXd-51" value="" style="verticalLabelPosition=bottom;sketch=0;html=1;fillColor=#282828;strokeColor=none;verticalAlign=top;pointerEvents=1;align=center;shape=mxgraph.cisco_safe.people_places_things_icons.icon10;" vertex="1" parent="1">
          <mxGeometry x="286" y="65" width="141" height="130" as="geometry" />
        </mxCell>
        <mxCell id="gog2KQi0PHtg9QcvCmXd-54" value="" style="ellipse;shape=cloud;whiteSpace=wrap;html=1;fillColor=#f8cecc;strokeColor=#b85450;" vertex="1" parent="1">
          <mxGeometry x="750" y="40" width="306" height="160" as="geometry" />
        </mxCell>
        <mxCell id="gog2KQi0PHtg9QcvCmXd-55" value="G21" style="text;html=1;strokeColor=none;fillColor=none;align=center;verticalAlign=middle;whiteSpace=wrap;rounded=0;" vertex="1" parent="1">
          <mxGeometry x="820" y="555" width="60" height="30" as="geometry" />
        </mxCell>
        <mxCell id="gog2KQi0PHtg9QcvCmXd-56" value="LAN igc0&lt;br&gt;10.224.52.253/24&lt;br&gt;90:EC:77:35:22:DB" style="text;html=1;strokeColor=none;fillColor=none;align=center;verticalAlign=middle;whiteSpace=wrap;rounded=0;" vertex="1" parent="1">
          <mxGeometry x="711" y="449.5" width="115" height="39" as="geometry" />
        </mxCell>
        <mxCell id="gog2KQi0PHtg9QcvCmXd-57" value="WAN ix3&lt;br&gt;DHCP&lt;br&gt;90:EC:77:35:22:D9" style="text;html=1;strokeColor=none;fillColor=none;align=center;verticalAlign=middle;whiteSpace=wrap;rounded=0;" vertex="1" parent="1">
          <mxGeometry x="726" y="255" width="90" height="40" as="geometry" />
        </mxCell>
        <mxCell id="gog2KQi0PHtg9QcvCmXd-58" value="WAN2 ix2&lt;br&gt;DHCP&lt;br&gt;90:EC:77:35:22:DA" style="text;html=1;strokeColor=none;fillColor=none;align=center;verticalAlign=middle;whiteSpace=wrap;rounded=0;" vertex="1" parent="1">
          <mxGeometry x="726" y="373.5" width="100" height="31.5" as="geometry" />
        </mxCell>
        <mxCell id="gog2KQi0PHtg9QcvCmXd-59" value="DCVPN&lt;br&gt;10.224.50.0/24&lt;br&gt;UDP4/1994" style="text;html=1;strokeColor=none;fillColor=none;align=center;verticalAlign=middle;whiteSpace=wrap;rounded=0;" vertex="1" parent="1">
          <mxGeometry x="536" y="255" width="60" height="30" as="geometry" />
        </mxCell>
        <mxCell id="gog2KQi0PHtg9QcvCmXd-60" value="ADVOCATE ONE" style="text;html=1;strokeColor=none;fillColor=none;align=center;verticalAlign=middle;whiteSpace=wrap;rounded=0;" vertex="1" parent="1">
          <mxGeometry x="326.5" y="215" width="60" height="30" as="geometry" />
        </mxCell>
        <mxCell id="gog2KQi0PHtg9QcvCmXd-61" value="Internet" style="text;html=1;strokeColor=none;fillColor=none;align=center;verticalAlign=middle;whiteSpace=wrap;rounded=0;" vertex="1" parent="1">
          <mxGeometry x="636" y="105" width="60" height="30" as="geometry" />
        </mxCell>
        <mxCell id="gog2KQi0PHtg9QcvCmXd-62" value="Cell&lt;br&gt;Network" style="text;html=1;strokeColor=none;fillColor=none;align=center;verticalAlign=middle;whiteSpace=wrap;rounded=0;" vertex="1" parent="1">
          <mxGeometry x="920" y="100" width="60" height="30" as="geometry" />
        </mxCell>
        <mxCell id="gog2KQi0PHtg9QcvCmXd-63" value="G19" style="text;html=1;strokeColor=none;fillColor=none;align=center;verticalAlign=middle;whiteSpace=wrap;rounded=0;" vertex="1" parent="1">
          <mxGeometry x="923.5" y="550" width="60" height="30" as="geometry" />
        </mxCell>
        <mxCell id="gog2KQi0PHtg9QcvCmXd-64" value="&lt;font style=&quot;font-size: 19px;&quot;&gt;Reynolds &amp;amp; Reynolds&lt;/font&gt;" style="text;html=1;strokeColor=none;fillColor=none;align=center;verticalAlign=middle;whiteSpace=wrap;rounded=0;" vertex="1" parent="1">
          <mxGeometry x="2070" y="840" width="195" height="107.5" as="geometry" />
        </mxCell>
        <mxCell id="gog2KQi0PHtg9QcvCmXd-67" value="Cisco Switch&lt;br&gt;10.224.52.190/24&lt;br&gt;00:5F:86:D3:20:4E" style="text;html=1;strokeColor=none;fillColor=none;align=center;verticalAlign=middle;whiteSpace=wrap;rounded=0;" vertex="1" parent="1">
          <mxGeometry x="1940" y="1012.5" width="105" height="30" as="geometry" />
        </mxCell>
        <mxCell id="gog2KQi0PHtg9QcvCmXd-68" value="Netgear GS724t 24&lt;br style=&quot;border-color: var(--border-color);&quot;&gt;24GB port 2sfp&lt;br&gt;DHCP&lt;br&gt;E4:F4:C6:F1:35:20&lt;br&gt;" style="text;html=1;strokeColor=none;fillColor=none;align=center;verticalAlign=middle;whiteSpace=wrap;rounded=0;" vertex="1" parent="1">
          <mxGeometry x="816" y="720" width="110" height="30" as="geometry" />
        </mxCell>
        <mxCell id="gog2KQi0PHtg9QcvCmXd-69" value="PFSENSE&lt;br&gt;Netgate 4100" style="text;html=1;strokeColor=none;fillColor=none;align=center;verticalAlign=middle;whiteSpace=wrap;rounded=0;" vertex="1" parent="1">
          <mxGeometry x="616" y="454" width="85" height="30" as="geometry" />
        </mxCell>
        <mxCell id="gog2KQi0PHtg9QcvCmXd-72" value="G24" style="text;html=1;strokeColor=none;fillColor=none;align=center;verticalAlign=middle;whiteSpace=wrap;rounded=0;" vertex="1" parent="1">
          <mxGeometry x="920" y="680" width="60" height="30" as="geometry" />
        </mxCell>
        <mxCell id="gog2KQi0PHtg9QcvCmXd-73" value="Netgear&amp;nbsp;GS752TPv2&lt;br&gt;48GB/POE+ 4sfp&lt;br&gt;DHCP&lt;br&gt;94:A6:7E:2B:FF:A4&#x9;&lt;br&gt;" style="text;html=1;strokeColor=none;fillColor=none;align=center;verticalAlign=middle;whiteSpace=wrap;rounded=0;" vertex="1" parent="1">
          <mxGeometry x="405" y="728" width="60" height="30" as="geometry" />
        </mxCell>
        <mxCell id="gog2KQi0PHtg9QcvCmXd-74" value="G6" style="text;html=1;strokeColor=none;fillColor=none;align=center;verticalAlign=middle;whiteSpace=wrap;rounded=0;" vertex="1" parent="1">
          <mxGeometry x="760" y="620" width="60" height="30" as="geometry" />
        </mxCell>
        <mxCell id="gog2KQi0PHtg9QcvCmXd-75" value="G30" style="text;html=1;strokeColor=none;fillColor=none;align=center;verticalAlign=middle;whiteSpace=wrap;rounded=0;" vertex="1" parent="1">
          <mxGeometry x="490.5" y="640" width="60" height="30" as="geometry" />
        </mxCell>
        <mxCell id="gog2KQi0PHtg9QcvCmXd-76" value="Netgear&amp;nbsp;GS752TP&lt;br&gt;40 PoE, 8 PoE+ 4sfp&lt;br&gt;DHCP&lt;br&gt;A0:63:91:B9:3C:2F" style="text;html=1;strokeColor=none;fillColor=none;align=center;verticalAlign=middle;whiteSpace=wrap;rounded=0;" vertex="1" parent="1">
          <mxGeometry x="619" y="1015" width="144" height="60" as="geometry" />
        </mxCell>
        <mxCell id="gog2KQi0PHtg9QcvCmXd-78" value="G23" style="text;html=1;strokeColor=none;fillColor=none;align=center;verticalAlign=middle;whiteSpace=wrap;rounded=0;" vertex="1" parent="1">
          <mxGeometry x="750" y="690" width="60" height="30" as="geometry" />
        </mxCell>
        <mxCell id="gog2KQi0PHtg9QcvCmXd-79" value="" style="rounded=1;whiteSpace=wrap;html=1;" vertex="1" parent="1">
          <mxGeometry x="-1050" y="1110" width="440" height="150" as="geometry" />
        </mxCell>
        <mxCell id="gog2KQi0PHtg9QcvCmXd-81" value="" style="shape=mxgraph.cisco.wireless.radio_tower;sketch=0;html=1;pointerEvents=1;dashed=0;fillColor=#f8cecc;strokeColor=#b85450;strokeWidth=2;verticalLabelPosition=bottom;verticalAlign=top;align=center;outlineConnect=0;" vertex="1" parent="1">
          <mxGeometry x="880" y="79.5" width="37" height="101" as="geometry" />
        </mxCell>
        <mxCell id="gog2KQi0PHtg9QcvCmXd-84" value="" style="points=[[0.03,0.36,0],[0.18,0,0],[0.5,0.34,0],[0.82,0,0],[0.97,0.36,0],[1,0.67,0],[0.975,0.975,0],[0.5,1,0],[0.025,0.975,0],[0,0.67,0]];verticalLabelPosition=bottom;sketch=0;html=1;verticalAlign=top;aspect=fixed;align=center;pointerEvents=1;shape=mxgraph.cisco19.wireless_access_point;fillColor=#005073;strokeColor=none;" vertex="1" parent="1">
          <mxGeometry x="-930" y="900" width="100" height="100" as="geometry" />
        </mxCell>
        <mxCell id="gog2KQi0PHtg9QcvCmXd-85" value="" style="points=[[0.03,0.36,0],[0.18,0,0],[0.5,0.34,0],[0.82,0,0],[0.97,0.36,0],[1,0.67,0],[0.975,0.975,0],[0.5,1,0],[0.025,0.975,0],[0,0.67,0]];verticalLabelPosition=bottom;sketch=0;html=1;verticalAlign=top;aspect=fixed;align=center;pointerEvents=1;shape=mxgraph.cisco19.wireless_access_point;fillColor=#005073;strokeColor=none;" vertex="1" parent="1">
          <mxGeometry x="-370" y="900" width="100" height="100" as="geometry" />
        </mxCell>
        <mxCell id="gog2KQi0PHtg9QcvCmXd-86" value="" style="points=[[0.03,0.36,0],[0.18,0,0],[0.5,0.34,0],[0.82,0,0],[0.97,0.36,0],[1,0.67,0],[0.975,0.975,0],[0.5,1,0],[0.025,0.975,0],[0,0.67,0]];verticalLabelPosition=bottom;sketch=0;html=1;verticalAlign=top;aspect=fixed;align=center;pointerEvents=1;shape=mxgraph.cisco19.wireless_access_point;fillColor=#005073;strokeColor=none;" vertex="1" parent="1">
          <mxGeometry x="-510" y="900" width="100" height="100" as="geometry" />
        </mxCell>
        <mxCell id="gog2KQi0PHtg9QcvCmXd-87" value="" style="points=[[0.03,0.36,0],[0.18,0,0],[0.5,0.34,0],[0.82,0,0],[0.97,0.36,0],[1,0.67,0],[0.975,0.975,0],[0.5,1,0],[0.025,0.975,0],[0,0.67,0]];verticalLabelPosition=bottom;sketch=0;html=1;verticalAlign=top;aspect=fixed;align=center;pointerEvents=1;shape=mxgraph.cisco19.wireless_access_point;fillColor=#005073;strokeColor=none;" vertex="1" parent="1">
          <mxGeometry x="-650" y="900" width="100" height="100" as="geometry" />
        </mxCell>
        <mxCell id="gog2KQi0PHtg9QcvCmXd-88" value="" style="points=[[0.03,0.36,0],[0.18,0,0],[0.5,0.34,0],[0.82,0,0],[0.97,0.36,0],[1,0.67,0],[0.975,0.975,0],[0.5,1,0],[0.025,0.975,0],[0,0.67,0]];verticalLabelPosition=bottom;sketch=0;html=1;verticalAlign=top;aspect=fixed;align=center;pointerEvents=1;shape=mxgraph.cisco19.wireless_access_point;fillColor=#005073;strokeColor=none;" vertex="1" parent="1">
          <mxGeometry x="-790" y="900" width="100" height="100" as="geometry" />
        </mxCell>
        <mxCell id="gog2KQi0PHtg9QcvCmXd-90" value="" style="endArrow=classic;startArrow=classic;html=1;rounded=0;entryX=0.75;entryY=0;entryDx=0;entryDy=0;exitX=1;exitY=0.5;exitDx=0;exitDy=0;exitPerimeter=0;" edge="1" parent="1" source="gog2KQi0PHtg9QcvCmXd-6" target="gog2KQi0PHtg9QcvCmXd-127">
          <mxGeometry width="50" height="50" relative="1" as="geometry">
            <mxPoint x="1010" y="640" as="sourcePoint" />
            <mxPoint x="1810" y="1100" as="targetPoint" />
          </mxGeometry>
        </mxCell>
        <mxCell id="gog2KQi0PHtg9QcvCmXd-91" value="" style="rounded=1;whiteSpace=wrap;html=1;" vertex="1" parent="1">
          <mxGeometry x="475" y="1110" width="390" height="840" as="geometry" />
        </mxCell>
        <mxCell id="gog2KQi0PHtg9QcvCmXd-92" value="" style="rounded=1;whiteSpace=wrap;html=1;" vertex="1" parent="1">
          <mxGeometry x="1010" y="1110" width="390" height="840" as="geometry" />
        </mxCell>
        <mxCell id="gog2KQi0PHtg9QcvCmXd-93" value="" style="endArrow=none;html=1;rounded=0;" edge="1" parent="1">
          <mxGeometry width="50" height="50" relative="1" as="geometry">
            <mxPoint x="-740" y="730" as="sourcePoint" />
            <mxPoint x="-230" y="730" as="targetPoint" />
          </mxGeometry>
        </mxCell>
        <mxCell id="gog2KQi0PHtg9QcvCmXd-94" value="" style="endArrow=classic;html=1;rounded=0;entryX=0.5;entryY=0.34;entryDx=0;entryDy=0;entryPerimeter=0;" edge="1" parent="1" source="gog2KQi0PHtg9QcvCmXd-109" target="gog2KQi0PHtg9QcvCmXd-84">
          <mxGeometry width="50" height="50" relative="1" as="geometry">
            <mxPoint x="-880" y="730" as="sourcePoint" />
            <mxPoint x="-845" y="710" as="targetPoint" />
          </mxGeometry>
        </mxCell>
        <mxCell id="gog2KQi0PHtg9QcvCmXd-95" value="" style="endArrow=classic;html=1;rounded=0;entryX=0.5;entryY=0.34;entryDx=0;entryDy=0;entryPerimeter=0;" edge="1" parent="1" target="gog2KQi0PHtg9QcvCmXd-88">
          <mxGeometry width="50" height="50" relative="1" as="geometry">
            <mxPoint x="-740" y="730" as="sourcePoint" />
            <mxPoint x="-750" y="800" as="targetPoint" />
          </mxGeometry>
        </mxCell>
        <mxCell id="gog2KQi0PHtg9QcvCmXd-96" value="" style="endArrow=classic;html=1;rounded=0;entryX=0.5;entryY=0.34;entryDx=0;entryDy=0;entryPerimeter=0;" edge="1" parent="1" target="gog2KQi0PHtg9QcvCmXd-87">
          <mxGeometry width="50" height="50" relative="1" as="geometry">
            <mxPoint x="-600" y="730" as="sourcePoint" />
            <mxPoint x="-581.05" y="800" as="targetPoint" />
          </mxGeometry>
        </mxCell>
        <mxCell id="gog2KQi0PHtg9QcvCmXd-97" value="" style="endArrow=classic;html=1;rounded=0;entryX=0.5;entryY=0.34;entryDx=0;entryDy=0;entryPerimeter=0;" edge="1" parent="1" target="gog2KQi0PHtg9QcvCmXd-86">
          <mxGeometry width="50" height="50" relative="1" as="geometry">
            <mxPoint x="-460" y="730" as="sourcePoint" />
            <mxPoint x="-480" y="660" as="targetPoint" />
          </mxGeometry>
        </mxCell>
        <mxCell id="gog2KQi0PHtg9QcvCmXd-98" value="" style="endArrow=classic;html=1;rounded=0;entryX=0.5;entryY=0.34;entryDx=0;entryDy=0;entryPerimeter=0;" edge="1" parent="1" target="gog2KQi0PHtg9QcvCmXd-85">
          <mxGeometry width="50" height="50" relative="1" as="geometry">
            <mxPoint x="-320" y="730" as="sourcePoint" />
            <mxPoint x="-390" y="736.5" as="targetPoint" />
          </mxGeometry>
        </mxCell>
        <mxCell id="gog2KQi0PHtg9QcvCmXd-99" value="" style="endArrow=classic;html=1;rounded=0;entryX=0;entryY=0.5;entryDx=0;entryDy=0;entryPerimeter=0;" edge="1" parent="1" target="gog2KQi0PHtg9QcvCmXd-34">
          <mxGeometry width="50" height="50" relative="1" as="geometry">
            <mxPoint x="-230" y="730" as="sourcePoint" />
            <mxPoint x="-230" y="830" as="targetPoint" />
          </mxGeometry>
        </mxCell>
        <mxCell id="gog2KQi0PHtg9QcvCmXd-101" value="" style="endArrow=none;dashed=1;html=1;dashPattern=1 3;strokeWidth=2;rounded=0;" edge="1" parent="1">
          <mxGeometry width="50" height="50" relative="1" as="geometry">
            <mxPoint x="-880" y="1090" as="sourcePoint" />
            <mxPoint x="-320" y="1090" as="targetPoint" />
          </mxGeometry>
        </mxCell>
        <mxCell id="gog2KQi0PHtg9QcvCmXd-102" value="" style="endArrow=none;dashed=1;html=1;dashPattern=1 3;strokeWidth=2;rounded=0;exitX=0.5;exitY=1;exitDx=0;exitDy=0;exitPerimeter=0;" edge="1" parent="1">
          <mxGeometry width="50" height="50" relative="1" as="geometry">
            <mxPoint x="-319.99999999999955" y="1070" as="sourcePoint" />
            <mxPoint x="-320" y="1090" as="targetPoint" />
          </mxGeometry>
        </mxCell>
        <mxCell id="gog2KQi0PHtg9QcvCmXd-103" value="" style="endArrow=none;dashed=1;html=1;dashPattern=1 3;strokeWidth=2;rounded=0;entryX=0.5;entryY=1;entryDx=0;entryDy=0;entryPerimeter=0;" edge="1" parent="1">
          <mxGeometry width="50" height="50" relative="1" as="geometry">
            <mxPoint x="-460" y="1090" as="sourcePoint" />
            <mxPoint x="-459.99999999999955" y="1070" as="targetPoint" />
          </mxGeometry>
        </mxCell>
        <mxCell id="gog2KQi0PHtg9QcvCmXd-104" value="" style="endArrow=none;dashed=1;html=1;dashPattern=1 3;strokeWidth=2;rounded=0;entryX=0.5;entryY=1;entryDx=0;entryDy=0;entryPerimeter=0;" edge="1" parent="1">
          <mxGeometry width="50" height="50" relative="1" as="geometry">
            <mxPoint x="-600" y="1090" as="sourcePoint" />
            <mxPoint x="-599.9999999999995" y="1070" as="targetPoint" />
          </mxGeometry>
        </mxCell>
        <mxCell id="gog2KQi0PHtg9QcvCmXd-105" value="" style="endArrow=none;dashed=1;html=1;dashPattern=1 3;strokeWidth=2;rounded=0;entryX=0.5;entryY=1;entryDx=0;entryDy=0;entryPerimeter=0;" edge="1" parent="1">
          <mxGeometry width="50" height="50" relative="1" as="geometry">
            <mxPoint x="-740" y="1090" as="sourcePoint" />
            <mxPoint x="-739.9999999999995" y="1070" as="targetPoint" />
          </mxGeometry>
        </mxCell>
        <mxCell id="gog2KQi0PHtg9QcvCmXd-106" value="" style="endArrow=none;dashed=1;html=1;dashPattern=1 3;strokeWidth=2;rounded=0;exitX=0.5;exitY=1;exitDx=0;exitDy=0;exitPerimeter=0;" edge="1" parent="1">
          <mxGeometry width="50" height="50" relative="1" as="geometry">
            <mxPoint x="-879.9999999999995" y="1070" as="sourcePoint" />
            <mxPoint x="-880" y="1090" as="targetPoint" />
          </mxGeometry>
        </mxCell>
        <mxCell id="gog2KQi0PHtg9QcvCmXd-107" value="" style="endArrow=none;dashed=1;html=1;dashPattern=1 3;strokeWidth=2;rounded=0;exitX=0.5;exitY=0;exitDx=0;exitDy=0;" edge="1" parent="1" source="gog2KQi0PHtg9QcvCmXd-79">
          <mxGeometry width="50" height="50" relative="1" as="geometry">
            <mxPoint x="-830" y="1120" as="sourcePoint" />
            <mxPoint x="-830" y="1090" as="targetPoint" />
          </mxGeometry>
        </mxCell>
        <mxCell id="gog2KQi0PHtg9QcvCmXd-108" value="" style="endArrow=none;dashed=1;html=1;dashPattern=1 3;strokeWidth=2;rounded=0;" edge="1" parent="1">
          <mxGeometry width="50" height="50" relative="1" as="geometry">
            <mxPoint x="-460" y="1350" as="sourcePoint" />
            <mxPoint x="-460" y="1090" as="targetPoint" />
          </mxGeometry>
        </mxCell>
        <mxCell id="gog2KQi0PHtg9QcvCmXd-109" value="" style="shape=image;html=1;verticalAlign=top;verticalLabelPosition=bottom;labelBackgroundColor=#ffffff;imageAspect=0;aspect=fixed;image=https://cdn1.iconfinder.com/data/icons/iconoir-vol-3/24/question-mark-128.png;imageBackground=#000000;" vertex="1" parent="1">
          <mxGeometry x="-944" y="600" width="128" height="128" as="geometry" />
        </mxCell>
        <mxCell id="gog2KQi0PHtg9QcvCmXd-110" value="Detail Shop&lt;br&gt;UAP AC PRO&lt;br&gt;DHCP&lt;br&gt;68:d7:9a:d9:2e:5b&lt;br&gt;" style="text;html=1;strokeColor=none;fillColor=none;align=center;verticalAlign=middle;whiteSpace=wrap;rounded=0;" vertex="1" parent="1">
          <mxGeometry x="-925" y="1010" width="90" height="40" as="geometry" />
        </mxCell>
        <mxCell id="gog2KQi0PHtg9QcvCmXd-111" value="Conference Room&lt;br&gt;UAP AC PRO&lt;br&gt;DHCP&lt;br&gt;78:45:58:20:7f:b7&amp;nbsp;" style="text;html=1;strokeColor=none;fillColor=none;align=center;verticalAlign=middle;whiteSpace=wrap;rounded=0;" vertex="1" parent="1">
          <mxGeometry x="-790" y="1000" width="100" height="60" as="geometry" />
        </mxCell>
        <mxCell id="gog2KQi0PHtg9QcvCmXd-112" value="Service Shop&lt;br&gt;UAP AC PRO&lt;br&gt;DHCP&lt;br&gt;68:d7:9a:d9:2e:5d&lt;br&gt;&#x9;" style="text;html=1;strokeColor=none;fillColor=none;align=center;verticalAlign=middle;whiteSpace=wrap;rounded=0;" vertex="1" parent="1">
          <mxGeometry x="-630" y="1015" width="60" height="30" as="geometry" />
        </mxCell>
        <mxCell id="gog2KQi0PHtg9QcvCmXd-113" value="Service Office&lt;br&gt;UAP AC PRO&lt;br&gt;DHCP&lt;br&gt;f4:92:bf:5c:4b:b4" style="text;html=1;strokeColor=none;fillColor=none;align=center;verticalAlign=middle;whiteSpace=wrap;rounded=0;" vertex="1" parent="1">
          <mxGeometry x="-490" y="1015" width="60" height="30" as="geometry" />
        </mxCell>
        <mxCell id="gog2KQi0PHtg9QcvCmXd-114" value="Window Office&lt;br&gt;UAP AC PRO&lt;br&gt;DHCP&lt;br&gt;78:45:58:20:93:d3" style="text;html=1;strokeColor=none;fillColor=none;align=center;verticalAlign=middle;whiteSpace=wrap;rounded=0;" vertex="1" parent="1">
          <mxGeometry x="-350" y="1015" width="60" height="30" as="geometry" />
        </mxCell>
        <mxCell id="gog2KQi0PHtg9QcvCmXd-117" value="" style="rounded=1;whiteSpace=wrap;html=1;" vertex="1" parent="1">
          <mxGeometry x="-50" y="1110" width="390" height="840" as="geometry" />
        </mxCell>
        <mxCell id="gog2KQi0PHtg9QcvCmXd-118" value="Guest Network&lt;br&gt;SSID: Mazda of Everette Guest&lt;br&gt;VLAN: 30&lt;br&gt;IP:&amp;nbsp;10.224.50.0/24 DHCP" style="text;html=1;strokeColor=none;fillColor=none;align=center;verticalAlign=middle;whiteSpace=wrap;rounded=0;" vertex="1" parent="1">
          <mxGeometry x="-935" y="1125" width="210" height="120" as="geometry" />
        </mxCell>
        <mxCell id="gog2KQi0PHtg9QcvCmXd-119" value="" style="endArrow=classic;startArrow=classic;html=1;rounded=0;exitX=0.08;exitY=0.05;exitDx=0;exitDy=0;exitPerimeter=0;entryX=0;entryY=0.5;entryDx=0;entryDy=0;entryPerimeter=0;" edge="1" parent="1" source="gog2KQi0PHtg9QcvCmXd-34" target="gog2KQi0PHtg9QcvCmXd-3">
          <mxGeometry width="50" height="50" relative="1" as="geometry">
            <mxPoint x="-290" y="857.5" as="sourcePoint" />
            <mxPoint x="575" y="612.5" as="targetPoint" />
            <Array as="points">
              <mxPoint x="420" y="460" />
            </Array>
          </mxGeometry>
        </mxCell>
        <mxCell id="gog2KQi0PHtg9QcvCmXd-120" value="" style="endArrow=classic;startArrow=classic;html=1;rounded=0;exitX=1;exitY=0;exitDx=0;exitDy=0;exitPerimeter=0;entryX=0;entryY=1;entryDx=0;entryDy=0;entryPerimeter=0;" edge="1" parent="1" source="gog2KQi0PHtg9QcvCmXd-34" target="gog2KQi0PHtg9QcvCmXd-3">
          <mxGeometry width="50" height="50" relative="1" as="geometry">
            <mxPoint x="-400" y="835" as="sourcePoint" />
            <mxPoint x="465" y="590" as="targetPoint" />
          </mxGeometry>
        </mxCell>
        <mxCell id="gog2KQi0PHtg9QcvCmXd-123" value="" style="endArrow=classic;startArrow=classic;html=1;rounded=0;entryX=0;entryY=1;entryDx=0;entryDy=0;entryPerimeter=0;exitX=0.5;exitY=0;exitDx=0;exitDy=0;" edge="1" parent="1" source="gog2KQi0PHtg9QcvCmXd-117" target="gog2KQi0PHtg9QcvCmXd-34">
          <mxGeometry width="50" height="50" relative="1" as="geometry">
            <mxPoint x="130" y="1020" as="sourcePoint" />
            <mxPoint x="249" y="845" as="targetPoint" />
          </mxGeometry>
        </mxCell>
        <mxCell id="gog2KQi0PHtg9QcvCmXd-127" value="" style="rounded=1;whiteSpace=wrap;html=1;" vertex="1" parent="1">
          <mxGeometry x="1470" y="1110" width="390" height="840" as="geometry" />
        </mxCell>
        <mxCell id="gog2KQi0PHtg9QcvCmXd-128" value="" style="endArrow=classic;startArrow=classic;html=1;rounded=0;entryX=0;entryY=1;entryDx=0;entryDy=0;entryPerimeter=0;exitX=0.25;exitY=0;exitDx=0;exitDy=0;" edge="1" parent="1" source="gog2KQi0PHtg9QcvCmXd-91" target="gog2KQi0PHtg9QcvCmXd-33">
          <mxGeometry width="50" height="50" relative="1" as="geometry">
            <mxPoint x="286" y="1310" as="sourcePoint" />
            <mxPoint x="511" y="910" as="targetPoint" />
          </mxGeometry>
        </mxCell>
        <mxCell id="gog2KQi0PHtg9QcvCmXd-129" value="" style="endArrow=classic;startArrow=classic;html=1;rounded=0;entryX=0;entryY=1;entryDx=0;entryDy=0;entryPerimeter=0;exitX=0.25;exitY=0;exitDx=0;exitDy=0;" edge="1" parent="1" source="gog2KQi0PHtg9QcvCmXd-92" target="gog2KQi0PHtg9QcvCmXd-9">
          <mxGeometry width="50" height="50" relative="1" as="geometry">
            <mxPoint x="983.5" y="1077.5" as="sourcePoint" />
            <mxPoint x="1036.5" y="977.5" as="targetPoint" />
          </mxGeometry>
        </mxCell>
        <mxCell id="gog2KQi0PHtg9QcvCmXd-130" value="Igc2 VLAN 30&lt;br&gt;10.224.5.1&lt;br&gt;GUESTNETWORK" style="text;html=1;strokeColor=none;fillColor=none;align=center;verticalAlign=middle;whiteSpace=wrap;rounded=0;" vertex="1" parent="1">
          <mxGeometry x="510" y="415" width="96" height="30" as="geometry" />
        </mxCell>
        <mxCell id="gog2KQi0PHtg9QcvCmXd-132" value="Igc1 VLAN 40&lt;br&gt;10.224.40.1&lt;br&gt;SHOPNETWORK" style="text;html=1;strokeColor=none;fillColor=none;align=center;verticalAlign=middle;whiteSpace=wrap;rounded=0;" vertex="1" parent="1">
          <mxGeometry x="510" y="326.5" width="96" height="30" as="geometry" />
        </mxCell>
        <mxCell id="gog2KQi0PHtg9QcvCmXd-133" value="G41&lt;br&gt;VLAN 30" style="text;html=1;strokeColor=none;fillColor=none;align=center;verticalAlign=middle;whiteSpace=wrap;rounded=0;" vertex="1" parent="1">
          <mxGeometry x="500" y="570" width="60" height="30" as="geometry" />
        </mxCell>
        <mxCell id="gog2KQi0PHtg9QcvCmXd-134" value="G42&lt;br&gt;VLAN 40" style="text;html=1;strokeColor=none;fillColor=none;align=center;verticalAlign=middle;whiteSpace=wrap;rounded=0;" vertex="1" parent="1">
          <mxGeometry x="320" y="550" width="60" height="30" as="geometry" />
        </mxCell>
        <mxCell id="gog2KQi0PHtg9QcvCmXd-136" value="G47" style="text;html=1;strokeColor=none;fillColor=none;align=center;verticalAlign=middle;whiteSpace=wrap;rounded=0;" vertex="1" parent="1">
          <mxGeometry x="690" y="852.5" width="60" height="30" as="geometry" />
        </mxCell>
        <mxCell id="gog2KQi0PHtg9QcvCmXd-137" value="G24" style="text;html=1;strokeColor=none;fillColor=none;align=center;verticalAlign=middle;whiteSpace=wrap;rounded=0;" vertex="1" parent="1">
          <mxGeometry x="1130" y="852.5" width="60" height="30" as="geometry" />
        </mxCell>
        <mxCell id="gog2KQi0PHtg9QcvCmXd-138" value="Netgear GS724t 24&lt;br style=&quot;border-color: var(--border-color);&quot;&gt;24GB port 2sfp&lt;br&gt;DHCP&lt;br&gt;E4:F4:C6:EB:89:91&#x9;" style="text;html=1;strokeColor=none;fillColor=none;align=center;verticalAlign=middle;whiteSpace=wrap;rounded=0;" vertex="1" parent="1">
          <mxGeometry x="1150" y="1030" width="110" height="30" as="geometry" />
        </mxCell>
        <mxCell id="gog2KQi0PHtg9QcvCmXd-139" value="Ports: 1-2, 5, 9, 11-12, 20, 28, 30, 35, 45" style="text;html=1;strokeColor=none;fillColor=none;align=center;verticalAlign=middle;whiteSpace=wrap;rounded=0;" vertex="1" parent="1">
          <mxGeometry y="1130" width="300" height="30" as="geometry" />
        </mxCell>
        <mxCell id="gog2KQi0PHtg9QcvCmXd-140" value="Ports: 2, 4-14, 17-18, 20-23, 25-32, 34-35, 37-41, 43, 45-46, 48" style="text;html=1;strokeColor=none;fillColor=none;align=center;verticalAlign=middle;whiteSpace=wrap;rounded=0;" vertex="1" parent="1">
          <mxGeometry x="500.5" y="1139" width="340" height="30" as="geometry" />
        </mxCell>
        <mxCell id="gog2KQi0PHtg9QcvCmXd-141" value="Ports: 2-5, 7-13, 15, 17, 19-23&amp;nbsp;" style="text;html=1;strokeColor=none;fillColor=none;align=center;verticalAlign=middle;whiteSpace=wrap;rounded=0;" vertex="1" parent="1">
          <mxGeometry x="1030" y="1139" width="334" height="30" as="geometry" />
        </mxCell>
        <mxCell id="gog2KQi0PHtg9QcvCmXd-142" value="Ports: 2-5, 10-11, 16, 18, 20, 22" style="text;html=1;strokeColor=none;fillColor=none;align=center;verticalAlign=middle;whiteSpace=wrap;rounded=0;" vertex="1" parent="1">
          <mxGeometry x="1500" y="1139" width="330" height="30" as="geometry" />
        </mxCell>
        <mxCell id="gog2KQi0PHtg9QcvCmXd-143" value="" style="rounded=1;whiteSpace=wrap;html=1;" vertex="1" parent="1">
          <mxGeometry x="-1110" y="1351.25" width="940" height="2028.75" as="geometry" />
        </mxCell>
        <mxCell id="gog2KQi0PHtg9QcvCmXd-144" value="G37-G40&amp;nbsp;&lt;br&gt;VLAN 30, 40" style="text;html=1;strokeColor=none;fillColor=none;align=center;verticalAlign=middle;whiteSpace=wrap;rounded=0;" vertex="1" parent="1">
          <mxGeometry x="260" y="610" width="80" height="30" as="geometry" />
        </mxCell>
        <mxCell id="gog2KQi0PHtg9QcvCmXd-145" value="G39&#x9;" style="text;html=1;strokeColor=none;fillColor=none;align=center;verticalAlign=middle;whiteSpace=wrap;rounded=0;" vertex="1" parent="1">
          <mxGeometry x="-740" y="870" width="60" height="30" as="geometry" />
        </mxCell>
        <mxCell id="gog2KQi0PHtg9QcvCmXd-146" value="G38" style="text;html=1;strokeColor=none;fillColor=none;align=center;verticalAlign=middle;whiteSpace=wrap;rounded=0;" vertex="1" parent="1">
          <mxGeometry x="-600" y="870" width="60" height="30" as="geometry" />
        </mxCell>
        <mxCell id="gog2KQi0PHtg9QcvCmXd-147" value="G40" style="text;html=1;strokeColor=none;fillColor=none;align=center;verticalAlign=middle;whiteSpace=wrap;rounded=0;" vertex="1" parent="1">
          <mxGeometry x="-460" y="870" width="60" height="30" as="geometry" />
        </mxCell>
        <mxCell id="gog2KQi0PHtg9QcvCmXd-148" value="G37" style="text;html=1;strokeColor=none;fillColor=none;align=center;verticalAlign=middle;whiteSpace=wrap;rounded=0;" vertex="1" parent="1">
          <mxGeometry x="-320" y="870" width="60" height="30" as="geometry" />
        </mxCell>
        <mxCell id="gog2KQi0PHtg9QcvCmXd-150" value="" style="points=[[0.03,0.03,0],[0.5,0,0],[0.97,0.03,0],[1,0.4,0],[0.97,0.745,0],[0.5,1,0],[0.03,0.745,0],[0,0.4,0]];verticalLabelPosition=bottom;sketch=0;html=1;verticalAlign=top;aspect=fixed;align=center;pointerEvents=1;shape=mxgraph.cisco19.workstation;fillColor=#005073;strokeColor=none;" vertex="1" parent="1">
          <mxGeometry x="-30" y="1180" width="50" height="40" as="geometry" />
        </mxCell>
        <mxCell id="gog2KQi0PHtg9QcvCmXd-151" value="Port G1,&amp;nbsp;FINANCE-DT, DHCP,&amp;nbsp;&lt;br&gt;6C:3C:8C:42:8A:F7" style="text;html=1;strokeColor=none;fillColor=none;align=center;verticalAlign=middle;whiteSpace=wrap;rounded=0;" vertex="1" parent="1">
          <mxGeometry x="50" y="1185" width="220" height="30" as="geometry" />
        </mxCell>
        <mxCell id="gog2KQi0PHtg9QcvCmXd-153" value="" style="points=[[0.22,0.185,0],[0.5,0,0],[0.78,0.185,0],[0.975,0.49,0],[1,0.73,0],[0.975,0.97,0],[0.5,1,0],[0.025,0.97,0],[0,0.73,0],[0.025,0.49,0]];verticalLabelPosition=bottom;sketch=0;html=1;verticalAlign=top;aspect=fixed;align=center;pointerEvents=1;shape=mxgraph.cisco19.printer;fillColor=#005073;strokeColor=none;" vertex="1" parent="1">
          <mxGeometry x="-30" y="1245" width="50" height="45" as="geometry" />
        </mxCell>
        <mxCell id="gog2KQi0PHtg9QcvCmXd-154" value="Port G2,&amp;nbsp;Brother MFC-L2710DW,&amp;nbsp;brnb42200a4a3c7.advocate1.net, DHCP,&amp;nbsp;&lt;span style=&quot;&quot;&gt;&lt;/span&gt;B4:22:00:A4:A3:C7" style="text;html=1;strokeColor=none;fillColor=none;align=center;verticalAlign=middle;whiteSpace=wrap;rounded=0;" vertex="1" parent="1">
          <mxGeometry x="50" y="1252.5" width="240" height="37.5" as="geometry" />
        </mxCell>
        <mxCell id="gog2KQi0PHtg9QcvCmXd-155" value="" style="points=[[0.22,0.185,0],[0.5,0,0],[0.78,0.185,0],[0.975,0.49,0],[1,0.73,0],[0.975,0.97,0],[0.5,1,0],[0.025,0.97,0],[0,0.73,0],[0.025,0.49,0]];verticalLabelPosition=bottom;sketch=0;html=1;verticalAlign=top;aspect=fixed;align=center;pointerEvents=1;shape=mxgraph.cisco19.printer;fillColor=#005073;strokeColor=none;" vertex="1" parent="1">
          <mxGeometry x="-30" y="1310" width="50" height="45" as="geometry" />
        </mxCell>
        <mxCell id="gog2KQi0PHtg9QcvCmXd-156" value="Port G5,&amp;nbsp;Brother MFC-L2750DW series,&amp;nbsp;brn3c2af4b18f58.advocate1.net, DHCP,&amp;nbsp;3C:2A:F4:B1:8F:58" style="text;html=1;strokeColor=none;fillColor=none;align=center;verticalAlign=middle;whiteSpace=wrap;rounded=0;" vertex="1" parent="1">
          <mxGeometry x="50" y="1313.75" width="240" height="37.5" as="geometry" />
        </mxCell>
        <mxCell id="gog2KQi0PHtg9QcvCmXd-157" value="" style="points=[[0.22,0.185,0],[0.5,0,0],[0.78,0.185,0],[0.975,0.49,0],[1,0.73,0],[0.975,0.97,0],[0.5,1,0],[0.025,0.97,0],[0,0.73,0],[0.025,0.49,0]];verticalLabelPosition=bottom;sketch=0;html=1;verticalAlign=top;aspect=fixed;align=center;pointerEvents=1;shape=mxgraph.cisco19.printer;fillColor=#005073;strokeColor=none;" vertex="1" parent="1">
          <mxGeometry x="-30" y="1380" width="50" height="45" as="geometry" />
        </mxCell>
        <mxCell id="gog2KQi0PHtg9QcvCmXd-158" value="Port G9,&amp;nbsp;Brother MFC-L2750DW series,&amp;nbsp;brn3c2af4d25eef.advocate1.net, DHCP,&amp;nbsp;3c:2a:f4:d2:5e:ef" style="text;html=1;strokeColor=none;fillColor=none;align=center;verticalAlign=middle;whiteSpace=wrap;rounded=0;" vertex="1" parent="1">
          <mxGeometry x="46" y="1383.75" width="240" height="37.5" as="geometry" />
        </mxCell>
        <mxCell id="gog2KQi0PHtg9QcvCmXd-159" value="" style="points=[[0.22,0.185,0],[0.5,0,0],[0.78,0.185,0],[0.975,0.49,0],[1,0.73,0],[0.975,0.97,0],[0.5,1,0],[0.025,0.97,0],[0,0.73,0],[0.025,0.49,0]];verticalLabelPosition=bottom;sketch=0;html=1;verticalAlign=top;aspect=fixed;align=center;pointerEvents=1;shape=mxgraph.cisco19.printer;fillColor=#005073;strokeColor=none;" vertex="1" parent="1">
          <mxGeometry x="-30" y="1450" width="50" height="45" as="geometry" />
        </mxCell>
        <mxCell id="gog2KQi0PHtg9QcvCmXd-160" value="Port G11,&amp;nbsp;Brother MFC-L2710DW series,&amp;nbsp;brnb422003bb98a.advocate1.net, DHCP, b4:22:00:3b:b9:8a&#x9;" style="text;html=1;strokeColor=none;fillColor=none;align=center;verticalAlign=middle;whiteSpace=wrap;rounded=0;" vertex="1" parent="1">
          <mxGeometry x="50" y="1450" width="240" height="37.5" as="geometry" />
        </mxCell>
        <mxCell id="gog2KQi0PHtg9QcvCmXd-161" value="" style="points=[[0.03,0.03,0],[0.5,0,0],[0.97,0.03,0],[1,0.4,0],[0.97,0.745,0],[0.5,1,0],[0.03,0.745,0],[0,0.4,0]];verticalLabelPosition=bottom;sketch=0;html=1;verticalAlign=top;aspect=fixed;align=center;pointerEvents=1;shape=mxgraph.cisco19.workstation;fillColor=#005073;strokeColor=none;" vertex="1" parent="1">
          <mxGeometry x="-30" y="1520" width="50" height="40" as="geometry" />
        </mxCell>
        <mxCell id="gog2KQi0PHtg9QcvCmXd-162" value="Port G12,&amp;nbsp;BUSOFF-TBD, DHCP,&amp;nbsp;&lt;br&gt;F4:8E:38:A9:5B:A9" style="text;html=1;strokeColor=none;fillColor=none;align=center;verticalAlign=middle;whiteSpace=wrap;rounded=0;" vertex="1" parent="1">
          <mxGeometry x="56" y="1520" width="220" height="30" as="geometry" />
        </mxCell>
        <mxCell id="gog2KQi0PHtg9QcvCmXd-163" value="" style="points=[[0.22,0.185,0],[0.5,0,0],[0.78,0.185,0],[0.975,0.49,0],[1,0.73,0],[0.975,0.97,0],[0.5,1,0],[0.025,0.97,0],[0,0.73,0],[0.025,0.49,0]];verticalLabelPosition=bottom;sketch=0;html=1;verticalAlign=top;aspect=fixed;align=center;pointerEvents=1;shape=mxgraph.cisco19.printer;fillColor=#005073;strokeColor=none;" vertex="1" parent="1">
          <mxGeometry x="-30" y="1575" width="50" height="45" as="geometry" />
        </mxCell>
        <mxCell id="gog2KQi0PHtg9QcvCmXd-164" value="Port G20,&amp;nbsp;Lexmark MS810,&amp;nbsp;10.224.52.7/24, 00:21:b7:ab:36:cd&#x9;" style="text;html=1;strokeColor=none;fillColor=none;align=center;verticalAlign=middle;whiteSpace=wrap;rounded=0;" vertex="1" parent="1">
          <mxGeometry x="56" y="1582.5" width="240" height="37.5" as="geometry" />
        </mxCell>
        <mxCell id="gog2KQi0PHtg9QcvCmXd-165" value="" style="points=[[0.03,0.03,0],[0.5,0,0],[0.97,0.03,0],[1,0.4,0],[0.97,0.745,0],[0.5,1,0],[0.03,0.745,0],[0,0.4,0]];verticalLabelPosition=bottom;sketch=0;html=1;verticalAlign=top;aspect=fixed;align=center;pointerEvents=1;shape=mxgraph.cisco19.workstation;fillColor=#005073;strokeColor=none;" vertex="1" parent="1">
          <mxGeometry x="-30" y="1640" width="50" height="40" as="geometry" />
        </mxCell>
        <mxCell id="gog2KQi0PHtg9QcvCmXd-166" value="Port G28,&amp;nbsp;ANN, DHCP,&amp;nbsp;&lt;br&gt;20:88:10:DC:BE:A0" style="text;html=1;strokeColor=none;fillColor=none;align=center;verticalAlign=middle;whiteSpace=wrap;rounded=0;" vertex="1" parent="1">
          <mxGeometry x="56" y="1650" width="220" height="30" as="geometry" />
        </mxCell>
        <mxCell id="gog2KQi0PHtg9QcvCmXd-167" value="" style="shape=image;html=1;verticalAlign=top;verticalLabelPosition=bottom;labelBackgroundColor=#ffffff;imageAspect=0;aspect=fixed;image=https://cdn1.iconfinder.com/data/icons/iconoir-vol-3/24/question-mark-128.png;imageBackground=#000000;" vertex="1" parent="1">
          <mxGeometry x="-34" y="1695.5" width="58" height="58" as="geometry" />
        </mxCell>
        <mxCell id="gog2KQi0PHtg9QcvCmXd-168" value="Port 30, ?(IBM),&amp;nbsp;10.224.52.3/24, 00:0D:60:F3:38:68&#x9;&lt;br&gt;(Reynolds and Reynolds)&lt;br&gt;&amp;nbsp;" style="text;html=1;strokeColor=none;fillColor=none;align=center;verticalAlign=middle;whiteSpace=wrap;rounded=0;" vertex="1" parent="1">
          <mxGeometry x="60" y="1720" width="220" height="30" as="geometry" />
        </mxCell>
        <mxCell id="gog2KQi0PHtg9QcvCmXd-169" value="" style="points=[[0.59,0,0],[0.87,0.015,0],[0.88,0.3,0],[0.99,0.99,0],[0.5,1,0],[0.01,0.99,0],[0.075,0.5,0],[0.17,0.115,0]];verticalLabelPosition=bottom;sketch=0;html=1;verticalAlign=top;aspect=fixed;align=center;pointerEvents=1;shape=mxgraph.cisco19.ip_phone;fillColor=#005073;strokeColor=none;" vertex="1" parent="1">
          <mxGeometry x="-33.5" y="1770" width="57.49999999999999" height="50" as="geometry" />
        </mxCell>
        <mxCell id="gog2KQi0PHtg9QcvCmXd-170" value="Port 35, ?(Ipitomy), DHCP,&amp;nbsp;8c:b8:2c:20:59:af&lt;br&gt;&amp;nbsp;" style="text;html=1;strokeColor=none;fillColor=none;align=center;verticalAlign=middle;whiteSpace=wrap;rounded=0;" vertex="1" parent="1">
          <mxGeometry x="56" y="1790" width="220" height="30" as="geometry" />
        </mxCell>
        <mxCell id="gog2KQi0PHtg9QcvCmXd-171" value="" style="points=[[0.03,0.03,0],[0.5,0,0],[0.97,0.03,0],[1,0.4,0],[0.97,0.745,0],[0.5,1,0],[0.03,0.745,0],[0,0.4,0]];verticalLabelPosition=bottom;sketch=0;html=1;verticalAlign=top;aspect=fixed;align=center;pointerEvents=1;shape=mxgraph.cisco19.workstation;fillColor=#005073;strokeColor=none;" vertex="1" parent="1">
          <mxGeometry x="-29.75" y="1840" width="50" height="40" as="geometry" />
        </mxCell>
        <mxCell id="gog2KQi0PHtg9QcvCmXd-172" value="Port G45,&amp;nbsp;Bebs &lt;br&gt;DESKTOP-VMIJMJ2, DHCP,&amp;nbsp;&lt;br&gt;70:B5:E8:6A:65:9D&#x9;" style="text;html=1;strokeColor=none;fillColor=none;align=center;verticalAlign=middle;whiteSpace=wrap;rounded=0;" vertex="1" parent="1">
          <mxGeometry x="50" y="1845" width="220" height="30" as="geometry" />
        </mxCell>
        <mxCell id="gog2KQi0PHtg9QcvCmXd-173" value="Verizon Gateway" style="text;html=1;strokeColor=none;fillColor=none;align=center;verticalAlign=middle;whiteSpace=wrap;rounded=0;" vertex="1" parent="1">
          <mxGeometry x="889" y="405" width="60" height="30" as="geometry" />
        </mxCell>
        <mxCell id="gog2KQi0PHtg9QcvCmXd-174" value="192.168.0.1" style="text;html=1;strokeColor=none;fillColor=none;align=center;verticalAlign=middle;whiteSpace=wrap;rounded=0;" vertex="1" parent="1">
          <mxGeometry x="826" y="330" width="60" height="30" as="geometry" />
        </mxCell>
        <mxCell id="gog2KQi0PHtg9QcvCmXd-175" value="" style="sketch=0;points=[[0.015,0.015,0],[0.985,0.015,0],[0.985,0.985,0],[0.015,0.985,0],[0.25,0,0],[0.5,0,0],[0.75,0,0],[1,0.25,0],[1,0.5,0],[1,0.75,0],[0.75,1,0],[0.5,1,0],[0.25,1,0],[0,0.75,0],[0,0.5,0],[0,0.25,0]];verticalLabelPosition=bottom;html=1;verticalAlign=top;aspect=fixed;align=center;pointerEvents=1;shape=mxgraph.cisco19.pos;fillColor=#005073;strokeColor=none;" vertex="1" parent="1">
          <mxGeometry x="-540" y="1436.25" width="64" height="50" as="geometry" />
        </mxCell>
        <mxCell id="gog2KQi0PHtg9QcvCmXd-176" value="Default Network&lt;br&gt;SSID: Mazda of Everette&lt;br&gt;IP:&amp;nbsp;10.224.52.0/24 DHCP" style="text;html=1;strokeColor=none;fillColor=none;align=center;verticalAlign=middle;whiteSpace=wrap;rounded=0;" vertex="1" parent="1">
          <mxGeometry x="-740" y="1356.25" width="210" height="80" as="geometry" />
        </mxCell>
        <mxCell id="gog2KQi0PHtg9QcvCmXd-177" value="Clover Network, Inc. POS, DHCP,&amp;nbsp;04:c1:03:0e:4b:77" style="text;html=1;strokeColor=none;fillColor=none;align=center;verticalAlign=middle;whiteSpace=wrap;rounded=0;" vertex="1" parent="1">
          <mxGeometry x="-440" y="1446.25" width="190" height="30" as="geometry" />
        </mxCell>
        <mxCell id="gog2KQi0PHtg9QcvCmXd-178" value="" style="sketch=0;points=[[0.015,0.015,0],[0.985,0.015,0],[0.985,0.985,0],[0.015,0.985,0],[0.25,0,0],[0.5,0,0],[0.75,0,0],[1,0.25,0],[1,0.5,0],[1,0.75,0],[0.75,1,0],[0.5,1,0],[0.25,1,0],[0,0.75,0],[0,0.5,0],[0,0.25,0]];verticalLabelPosition=bottom;html=1;verticalAlign=top;aspect=fixed;align=center;pointerEvents=1;shape=mxgraph.cisco19.handheld;fillColor=#005073;strokeColor=none;" vertex="1" parent="1">
          <mxGeometry x="-526.75" y="1505" width="37.5" height="50" as="geometry" />
        </mxCell>
        <mxCell id="gog2KQi0PHtg9QcvCmXd-179" value="MazdaofettsiPad, DHCP,&amp;nbsp;8e:ff:45:79:39:8b" style="text;html=1;strokeColor=none;fillColor=none;align=center;verticalAlign=middle;whiteSpace=wrap;rounded=0;" vertex="1" parent="1">
          <mxGeometry x="-385" y="1515" width="60" height="30" as="geometry" />
        </mxCell>
        <mxCell id="gog2KQi0PHtg9QcvCmXd-180" value="" style="html=1;verticalLabelPosition=bottom;align=center;labelBackgroundColor=#ffffff;verticalAlign=top;strokeWidth=2;strokeColor=#0080F0;shadow=0;dashed=0;shape=mxgraph.ios7.icons.note;pointerEvents=1" vertex="1" parent="1">
          <mxGeometry x="-529.4300000000001" y="1581.25" width="42.85" height="40" as="geometry" />
        </mxCell>
        <mxCell id="gog2KQi0PHtg9QcvCmXd-181" value="sonoszp, DHCP,&amp;nbsp;38:42:0b:ec:1e:93&lt;div style=&quot;box-sizing: border-box; display: flex; height: 24px; -webkit-box-pack: justify; justify-content: space-between; width: 336px; margin-bottom: 8px; color: rgba(232, 230, 227, 0.65); font-family: &amp;quot;UI Sans&amp;quot;, Lato, Arial, sans-serif; font-variant-ligatures: no-common-ligatures; text-align: start;&quot; class=&quot;css-8g95jf&quot; width=&quot;100%&quot; height=&quot;24&quot;&gt;&lt;/div&gt;" style="text;html=1;strokeColor=none;fillColor=none;align=center;verticalAlign=middle;whiteSpace=wrap;rounded=0;" vertex="1" parent="1">
          <mxGeometry x="-375" y="1601.25" width="60" height="30" as="geometry" />
        </mxCell>
        <mxCell id="gog2KQi0PHtg9QcvCmXd-182" value="" style="shape=image;html=1;verticalAlign=top;verticalLabelPosition=bottom;labelBackgroundColor=#ffffff;imageAspect=0;aspect=fixed;image=https://cdn1.iconfinder.com/data/icons/iconoir-vol-3/24/question-mark-128.png;imageBackground=#000000;" vertex="1" parent="1">
          <mxGeometry x="-537.01" y="1641.25" width="58" height="58" as="geometry" />
        </mxCell>
        <mxCell id="gog2KQi0PHtg9QcvCmXd-183" value="?, DHCP, aa:fb:53:42:35:0d" style="text;html=1;strokeColor=none;fillColor=none;align=center;verticalAlign=middle;whiteSpace=wrap;rounded=0;" vertex="1" parent="1">
          <mxGeometry x="-380" y="1655.25" width="60" height="30" as="geometry" />
        </mxCell>
        <mxCell id="gog2KQi0PHtg9QcvCmXd-184" value="" style="sketch=0;points=[[0.015,0.015,0],[0.985,0.015,0],[0.985,0.985,0],[0.015,0.985,0],[0.25,0,0],[0.5,0,0],[0.75,0,0],[1,0.25,0],[1,0.5,0],[1,0.75,0],[0.75,1,0],[0.5,1,0],[0.25,1,0],[0,0.75,0],[0,0.5,0],[0,0.25,0]];verticalLabelPosition=bottom;html=1;verticalAlign=top;aspect=fixed;align=center;pointerEvents=1;shape=mxgraph.cisco19.cell_phone;fillColor=#005073;strokeColor=none;" vertex="1" parent="1">
          <mxGeometry x="-520.5" y="1728.75" width="25" height="50" as="geometry" />
        </mxCell>
        <mxCell id="gog2KQi0PHtg9QcvCmXd-185" value="Pixel-6, DHCP,&amp;nbsp;1e:e5:0a:19:78:58" style="text;html=1;strokeColor=none;fillColor=none;align=center;verticalAlign=middle;whiteSpace=wrap;rounded=0;" vertex="1" parent="1">
          <mxGeometry x="-380" y="1736.25" width="60" height="30" as="geometry" />
        </mxCell>
        <mxCell id="gog2KQi0PHtg9QcvCmXd-186" value="" style="shape=image;html=1;verticalAlign=top;verticalLabelPosition=bottom;labelBackgroundColor=#ffffff;imageAspect=0;aspect=fixed;image=https://cdn1.iconfinder.com/data/icons/iconoir-vol-3/24/question-mark-128.png;imageBackground=#000000;" vertex="1" parent="1">
          <mxGeometry x="-537.01" y="1809.75" width="58" height="58" as="geometry" />
        </mxCell>
        <mxCell id="gog2KQi0PHtg9QcvCmXd-188" value="?, DHCP,&amp;nbsp;42:7b:a9:45:40:ef&lt;br&gt;&lt;br&gt;&lt;div style=&quot;box-sizing: border-box; display: flex; line-height: initial; color: rgba(232, 230, 227, 0.65); font-family: &amp;quot;UI Sans&amp;quot;, Lato, Arial, sans-serif; font-variant-ligatures: no-common-ligatures; text-align: start; background-color: rgb(10, 11, 11);&quot; class=&quot;css-x8zeb6&quot;&gt;&lt;/div&gt;" style="text;html=1;strokeColor=none;fillColor=none;align=center;verticalAlign=middle;whiteSpace=wrap;rounded=0;" vertex="1" parent="1">
          <mxGeometry x="-380" y="1823.75" width="60" height="30" as="geometry" />
        </mxCell>
        <mxCell id="gog2KQi0PHtg9QcvCmXd-189" value="" style="shape=image;html=1;verticalAlign=top;verticalLabelPosition=bottom;labelBackgroundColor=#ffffff;imageAspect=0;aspect=fixed;image=https://cdn1.iconfinder.com/data/icons/iconoir-vol-3/24/question-mark-128.png;imageBackground=#000000;" vertex="1" parent="1">
          <mxGeometry x="-537" y="1881.25" width="58" height="58" as="geometry" />
        </mxCell>
        <mxCell id="gog2KQi0PHtg9QcvCmXd-190" value="?(Shenzhen Elink Technology Co., LTD)&lt;br&gt;, DHCP,&amp;nbsp;54:ef:92:3a:ec:ea&lt;br&gt;&lt;br&gt;&lt;div style=&quot;box-sizing: border-box; display: flex; line-height: initial; color: rgba(232, 230, 227, 0.65); font-family: &amp;quot;UI Sans&amp;quot;, Lato, Arial, sans-serif; font-variant-ligatures: no-common-ligatures; text-align: start; background-color: rgb(10, 11, 11);&quot; class=&quot;css-x8zeb6&quot;&gt;&lt;/div&gt;&lt;div style=&quot;box-sizing: border-box; display: flex; line-height: initial; color: rgba(232, 230, 227, 0.65); font-family: &amp;quot;UI Sans&amp;quot;, Lato, Arial, sans-serif; font-variant-ligatures: no-common-ligatures; text-align: start; background-color: rgb(10, 11, 11);&quot; class=&quot;css-x8zeb6&quot;&gt;&lt;/div&gt;" style="text;html=1;strokeColor=none;fillColor=none;align=center;verticalAlign=middle;whiteSpace=wrap;rounded=0;" vertex="1" parent="1">
          <mxGeometry x="-422.5" y="1895.25" width="155" height="30" as="geometry" />
        </mxCell>
        <mxCell id="gog2KQi0PHtg9QcvCmXd-191" value="" style="shape=image;html=1;verticalAlign=top;verticalLabelPosition=bottom;labelBackgroundColor=#ffffff;imageAspect=0;aspect=fixed;image=https://cdn1.iconfinder.com/data/icons/iconoir-vol-3/24/question-mark-128.png;imageBackground=#000000;" vertex="1" parent="1">
          <mxGeometry x="-537" y="1953.25" width="58" height="58" as="geometry" />
        </mxCell>
        <mxCell id="gog2KQi0PHtg9QcvCmXd-192" value="?, DHCP,&amp;nbsp;da:3e:54:b6:8a:ea&lt;div style=&quot;box-sizing: border-box; display: flex; height: 24px; -webkit-box-pack: justify; justify-content: space-between; width: 336px; margin-bottom: 8px; color: rgba(232, 230, 227, 0.65); font-family: &amp;quot;UI Sans&amp;quot;, Lato, Arial, sans-serif; font-variant-ligatures: no-common-ligatures; text-align: start;&quot; class=&quot;css-8g95jf&quot; width=&quot;100%&quot; height=&quot;24&quot;&gt;&lt;/div&gt;&lt;div style=&quot;box-sizing: border-box; display: flex; line-height: initial; color: rgba(232, 230, 227, 0.65); font-family: &amp;quot;UI Sans&amp;quot;, Lato, Arial, sans-serif; font-variant-ligatures: no-common-ligatures; text-align: start; background-color: rgb(10, 11, 11);&quot; class=&quot;css-x8zeb6&quot;&gt;&lt;/div&gt;" style="text;html=1;strokeColor=none;fillColor=none;align=center;verticalAlign=middle;whiteSpace=wrap;rounded=0;" vertex="1" parent="1">
          <mxGeometry x="-370" y="1980.25" width="60" height="30" as="geometry" />
        </mxCell>
        <mxCell id="gog2KQi0PHtg9QcvCmXd-193" value="" style="sketch=0;points=[[0.015,0.015,0],[0.985,0.015,0],[0.985,0.985,0],[0.015,0.985,0],[0.25,0,0],[0.5,0,0],[0.75,0,0],[1,0.25,0],[1,0.5,0],[1,0.75,0],[0.75,1,0],[0.5,1,0],[0.25,1,0],[0,0.75,0],[0,0.5,0],[0,0.25,0]];verticalLabelPosition=bottom;html=1;verticalAlign=top;aspect=fixed;align=center;pointerEvents=1;shape=mxgraph.cisco19.pos;fillColor=#005073;strokeColor=none;" vertex="1" parent="1">
          <mxGeometry x="-540.01" y="2031.25" width="64" height="50" as="geometry" />
        </mxCell>
        <mxCell id="gog2KQi0PHtg9QcvCmXd-194" value="Clover Network, Inc. POS, DHCP,&amp;nbsp;04:c1:03:0b:be:e2" style="text;html=1;strokeColor=none;fillColor=none;align=center;verticalAlign=middle;whiteSpace=wrap;rounded=0;" vertex="1" parent="1">
          <mxGeometry x="-445" y="2041.25" width="190" height="30" as="geometry" />
        </mxCell>
        <mxCell id="gog2KQi0PHtg9QcvCmXd-195" value="" style="sketch=0;points=[[0.015,0.015,0],[0.985,0.015,0],[0.985,0.985,0],[0.015,0.985,0],[0.25,0,0],[0.5,0,0],[0.75,0,0],[1,0.25,0],[1,0.5,0],[1,0.75,0],[0.75,1,0],[0.5,1,0],[0.25,1,0],[0,0.75,0],[0,0.5,0],[0,0.25,0]];verticalLabelPosition=bottom;html=1;verticalAlign=top;aspect=fixed;align=center;pointerEvents=1;shape=mxgraph.cisco19.pos;fillColor=#005073;strokeColor=none;" vertex="1" parent="1">
          <mxGeometry x="-540.01" y="2101.25" width="64" height="50" as="geometry" />
        </mxCell>
        <mxCell id="gog2KQi0PHtg9QcvCmXd-196" value="Clover Network, Inc. POS, DHCP,&amp;nbsp;&lt;br&gt;04:c1:03:0b:c4:75" style="text;html=1;strokeColor=none;fillColor=none;align=center;verticalAlign=middle;whiteSpace=wrap;rounded=0;" vertex="1" parent="1">
          <mxGeometry x="-430" y="2121.25" width="200" height="30" as="geometry" />
        </mxCell>
        <mxCell id="gog2KQi0PHtg9QcvCmXd-198" value="" style="sketch=0;points=[[0.015,0.015,0],[0.985,0.015,0],[0.985,0.985,0],[0.015,0.985,0],[0.25,0,0],[0.5,0,0],[0.75,0,0],[1,0.25,0],[1,0.5,0],[1,0.75,0],[0.75,1,0],[0.5,1,0],[0.25,1,0],[0,0.75,0],[0,0.5,0],[0,0.25,0]];verticalLabelPosition=bottom;html=1;verticalAlign=top;aspect=fixed;align=center;pointerEvents=1;shape=mxgraph.cisco19.pos;fillColor=#005073;strokeColor=none;" vertex="1" parent="1">
          <mxGeometry x="-540" y="2171.25" width="64" height="50" as="geometry" />
        </mxCell>
        <mxCell id="gog2KQi0PHtg9QcvCmXd-199" value="Clover Network, Inc. POS, DHCP,&amp;nbsp;04:c1:03:0b:c9:3f" style="text;html=1;strokeColor=none;fillColor=none;align=center;verticalAlign=middle;whiteSpace=wrap;rounded=0;" vertex="1" parent="1">
          <mxGeometry x="-435" y="2181.25" width="190" height="30" as="geometry" />
        </mxCell>
        <mxCell id="gog2KQi0PHtg9QcvCmXd-200" value="" style="points=[[0.03,0.03,0],[0.5,0,0],[0.97,0.03,0],[1,0.4,0],[0.97,0.745,0],[0.5,1,0],[0.03,0.745,0],[0,0.4,0]];verticalLabelPosition=bottom;sketch=0;html=1;verticalAlign=top;aspect=fixed;align=center;pointerEvents=1;shape=mxgraph.cisco19.workstation;fillColor=#005073;strokeColor=none;" vertex="1" parent="1">
          <mxGeometry x="-533" y="2251.25" width="50" height="40" as="geometry" />
        </mxCell>
        <mxCell id="gog2KQi0PHtg9QcvCmXd-201" value="DESKTOP-KC9FPEJ/Leann, DHCP,&amp;nbsp;9c:30:5b:4b:66:5d" style="text;html=1;strokeColor=none;fillColor=none;align=center;verticalAlign=middle;whiteSpace=wrap;rounded=0;" vertex="1" parent="1">
          <mxGeometry x="-435" y="2251.25" width="190" height="30" as="geometry" />
        </mxCell>
        <mxCell id="gog2KQi0PHtg9QcvCmXd-202" value="" style="sketch=0;points=[[0.015,0.015,0],[0.985,0.015,0],[0.985,0.985,0],[0.015,0.985,0],[0.25,0,0],[0.5,0,0],[0.75,0,0],[1,0.25,0],[1,0.5,0],[1,0.75,0],[0.75,1,0],[0.5,1,0],[0.25,1,0],[0,0.75,0],[0,0.5,0],[0,0.25,0]];verticalLabelPosition=bottom;html=1;verticalAlign=top;aspect=fixed;align=center;pointerEvents=1;shape=mxgraph.cisco19.cell_phone;fillColor=#005073;strokeColor=none;" vertex="1" parent="1">
          <mxGeometry x="-520.5" y="2311.25" width="25" height="50" as="geometry" />
        </mxCell>
        <mxCell id="gog2KQi0PHtg9QcvCmXd-203" value="kathy-s-s21, DHCP,&amp;nbsp;f6:ce:44:10:af:eb" style="text;html=1;strokeColor=none;fillColor=none;align=center;verticalAlign=middle;whiteSpace=wrap;rounded=0;" vertex="1" parent="1">
          <mxGeometry x="-435" y="2321.25" width="190" height="30" as="geometry" />
        </mxCell>
        <mxCell id="gog2KQi0PHtg9QcvCmXd-204" value="" style="sketch=0;points=[[0.015,0.015,0],[0.985,0.015,0],[0.985,0.985,0],[0.015,0.985,0],[0.25,0,0],[0.5,0,0],[0.75,0,0],[1,0.25,0],[1,0.5,0],[1,0.75,0],[0.75,1,0],[0.5,1,0],[0.25,1,0],[0,0.75,0],[0,0.5,0],[0,0.25,0]];verticalLabelPosition=bottom;html=1;verticalAlign=top;aspect=fixed;align=center;pointerEvents=1;shape=mxgraph.cisco19.cell_phone;fillColor=#005073;strokeColor=none;" vertex="1" parent="1">
          <mxGeometry x="-520.5" y="2381.25" width="25" height="50" as="geometry" />
        </mxCell>
        <mxCell id="gog2KQi0PHtg9QcvCmXd-205" value="galaxy-a32-5g,&amp;nbsp;DHCP,&amp;nbsp;da:6c:48:c9:fc:5a" style="text;html=1;strokeColor=none;fillColor=none;align=center;verticalAlign=middle;whiteSpace=wrap;rounded=0;" vertex="1" parent="1">
          <mxGeometry x="-445" y="2391.25" width="215" height="30" as="geometry" />
        </mxCell>
        <mxCell id="gog2KQi0PHtg9QcvCmXd-206" value="" style="shape=image;html=1;verticalAlign=top;verticalLabelPosition=bottom;labelBackgroundColor=#ffffff;imageAspect=0;aspect=fixed;image=https://cdn1.iconfinder.com/data/icons/iconoir-vol-3/24/question-mark-128.png;imageBackground=#000000;" vertex="1" parent="1">
          <mxGeometry x="-537.01" y="2451.25" width="58" height="58" as="geometry" />
        </mxCell>
        <mxCell id="gog2KQi0PHtg9QcvCmXd-207" value="?, DHCP,&amp;nbsp;4e:3e:41:40:35:2b&lt;div style=&quot;box-sizing: border-box; display: flex; line-height: initial; color: rgba(232, 230, 227, 0.65); font-family: &amp;quot;UI Sans&amp;quot;, Lato, Arial, sans-serif; font-variant-ligatures: no-common-ligatures; text-align: start; background-color: rgb(10, 11, 11);&quot; class=&quot;css-x8zeb6&quot;&gt;&lt;/div&gt;" style="text;html=1;strokeColor=none;fillColor=none;align=center;verticalAlign=middle;whiteSpace=wrap;rounded=0;" vertex="1" parent="1">
          <mxGeometry x="-375" y="2465.25" width="60" height="30" as="geometry" />
        </mxCell>
        <mxCell id="gog2KQi0PHtg9QcvCmXd-208" value="" style="shape=image;html=1;verticalAlign=top;verticalLabelPosition=bottom;labelBackgroundColor=#ffffff;imageAspect=0;aspect=fixed;image=https://cdn1.iconfinder.com/data/icons/iconoir-vol-3/24/question-mark-128.png;imageBackground=#000000;" vertex="1" parent="1">
          <mxGeometry x="-537.01" y="2531.25" width="58" height="58" as="geometry" />
        </mxCell>
        <mxCell id="gog2KQi0PHtg9QcvCmXd-209" value="?, DHCP,&amp;nbsp;7e:68:d3:d2:ba:49&lt;br&gt;&lt;div style=&quot;box-sizing: border-box; display: flex; line-height: initial; color: rgba(232, 230, 227, 0.65); font-family: &amp;quot;UI Sans&amp;quot;, Lato, Arial, sans-serif; font-variant-ligatures: no-common-ligatures; text-align: start; background-color: rgb(10, 11, 11);&quot; class=&quot;css-x8zeb6&quot;&gt;&lt;/div&gt;" style="text;html=1;strokeColor=none;fillColor=none;align=center;verticalAlign=middle;whiteSpace=wrap;rounded=0;" vertex="1" parent="1">
          <mxGeometry x="-375" y="2545.25" width="60" height="30" as="geometry" />
        </mxCell>
        <mxCell id="gog2KQi0PHtg9QcvCmXd-210" value="" style="sketch=0;points=[[0.015,0.015,0],[0.985,0.015,0],[0.985,0.985,0],[0.015,0.985,0],[0.25,0,0],[0.5,0,0],[0.75,0,0],[1,0.25,0],[1,0.5,0],[1,0.75,0],[0.75,1,0],[0.5,1,0],[0.25,1,0],[0,0.75,0],[0,0.5,0],[0,0.25,0]];verticalLabelPosition=bottom;html=1;verticalAlign=top;aspect=fixed;align=center;pointerEvents=1;shape=mxgraph.cisco19.pos;fillColor=#005073;strokeColor=none;" vertex="1" parent="1">
          <mxGeometry x="-540.01" y="2611.25" width="64" height="50" as="geometry" />
        </mxCell>
        <mxCell id="gog2KQi0PHtg9QcvCmXd-211" value="Clover Network, Inc. POS, DHCP,&amp;nbsp;04:c1:03:0b:b8:67" style="text;html=1;strokeColor=none;fillColor=none;align=center;verticalAlign=middle;whiteSpace=wrap;rounded=0;" vertex="1" parent="1">
          <mxGeometry x="-435" y="2621.25" width="190" height="30" as="geometry" />
        </mxCell>
        <mxCell id="gog2KQi0PHtg9QcvCmXd-212" value="" style="sketch=0;points=[[0.015,0.015,0],[0.985,0.015,0],[0.985,0.985,0],[0.015,0.985,0],[0.25,0,0],[0.5,0,0],[0.75,0,0],[1,0.25,0],[1,0.5,0],[1,0.75,0],[0.75,1,0],[0.5,1,0],[0.25,1,0],[0,0.75,0],[0,0.5,0],[0,0.25,0]];verticalLabelPosition=bottom;html=1;verticalAlign=top;aspect=fixed;align=center;pointerEvents=1;shape=mxgraph.cisco19.cell_phone;fillColor=#005073;strokeColor=none;" vertex="1" parent="1">
          <mxGeometry x="-520.51" y="2681.25" width="25" height="50" as="geometry" />
        </mxCell>
        <mxCell id="gog2KQi0PHtg9QcvCmXd-213" value="android-1befe369fbc9b922,&amp;nbsp;DHCP,&amp;nbsp;d4:9c:dd:1d:e6:24" style="text;html=1;strokeColor=none;fillColor=none;align=center;verticalAlign=middle;whiteSpace=wrap;rounded=0;" vertex="1" parent="1">
          <mxGeometry x="-452.5" y="2691.25" width="215" height="30" as="geometry" />
        </mxCell>
        <mxCell id="gog2KQi0PHtg9QcvCmXd-214" value="" style="points=[[0.22,0.185,0],[0.5,0,0],[0.78,0.185,0],[0.975,0.49,0],[1,0.73,0],[0.975,0.97,0],[0.5,1,0],[0.025,0.97,0],[0,0.73,0],[0.025,0.49,0]];verticalLabelPosition=bottom;sketch=0;html=1;verticalAlign=top;aspect=fixed;align=center;pointerEvents=1;shape=mxgraph.cisco19.printer;fillColor=#005073;strokeColor=none;" vertex="1" parent="1">
          <mxGeometry x="-533" y="2761.25" width="50" height="45" as="geometry" />
        </mxCell>
        <mxCell id="gog2KQi0PHtg9QcvCmXd-215" value="HP OfficeJet Pro 8020 series,&amp;nbsp;DHCP,&amp;nbsp;c8:5a:cf:ca:35:de" style="text;html=1;strokeColor=none;fillColor=none;align=center;verticalAlign=middle;whiteSpace=wrap;rounded=0;" vertex="1" parent="1">
          <mxGeometry x="-465" y="2765" width="240" height="37.5" as="geometry" />
        </mxCell>
        <mxCell id="gog2KQi0PHtg9QcvCmXd-216" value="" style="sketch=0;points=[[0.015,0.015,0],[0.985,0.015,0],[0.985,0.985,0],[0.015,0.985,0],[0.25,0,0],[0.5,0,0],[0.75,0,0],[1,0.25,0],[1,0.5,0],[1,0.75,0],[0.75,1,0],[0.5,1,0],[0.25,1,0],[0,0.75,0],[0,0.5,0],[0,0.25,0]];verticalLabelPosition=bottom;html=1;verticalAlign=top;aspect=fixed;align=center;pointerEvents=1;shape=mxgraph.cisco19.pos;fillColor=#005073;strokeColor=none;" vertex="1" parent="1">
          <mxGeometry x="-540.01" y="2831.25" width="64" height="50" as="geometry" />
        </mxCell>
        <mxCell id="gog2KQi0PHtg9QcvCmXd-217" value="Clover Network, Inc. POS, DHCP,&amp;nbsp;04:c1:03:0b:bf:e6" style="text;html=1;strokeColor=none;fillColor=none;align=center;verticalAlign=middle;whiteSpace=wrap;rounded=0;" vertex="1" parent="1">
          <mxGeometry x="-440" y="2841.25" width="190" height="30" as="geometry" />
        </mxCell>
        <mxCell id="gog2KQi0PHtg9QcvCmXd-219" value="LAPTOP-KEES, DHCP,&amp;nbsp;50:28:4a:1b:a0:62" style="text;html=1;strokeColor=none;fillColor=none;align=center;verticalAlign=middle;whiteSpace=wrap;rounded=0;" vertex="1" parent="1">
          <mxGeometry x="-435" y="2906.25" width="190" height="30" as="geometry" />
        </mxCell>
        <mxCell id="gog2KQi0PHtg9QcvCmXd-220" value="" style="sketch=0;points=[[0.015,0.015,0],[0.985,0.015,0],[0.985,0.985,0],[0.015,0.985,0],[0.25,0,0],[0.5,0,0],[0.75,0,0],[1,0.25,0],[1,0.5,0],[1,0.75,0],[0.75,1,0],[0.5,1,0],[0.25,1,0],[0,0.75,0],[0,0.5,0],[0,0.25,0]];verticalLabelPosition=bottom;html=1;verticalAlign=top;aspect=fixed;align=center;pointerEvents=1;shape=mxgraph.cisco19.pos;fillColor=#005073;strokeColor=none;" vertex="1" parent="1">
          <mxGeometry x="-540.01" y="2961.25" width="64" height="50" as="geometry" />
        </mxCell>
        <mxCell id="gog2KQi0PHtg9QcvCmXd-221" value="Clover Network, Inc. POS, DHCP,&amp;nbsp;04:c1:03:06:29:59" style="text;html=1;strokeColor=none;fillColor=none;align=center;verticalAlign=middle;whiteSpace=wrap;rounded=0;" vertex="1" parent="1">
          <mxGeometry x="-432.5" y="2971.25" width="190" height="30" as="geometry" />
        </mxCell>
        <mxCell id="gog2KQi0PHtg9QcvCmXd-222" value="" style="html=1;verticalLabelPosition=bottom;align=center;labelBackgroundColor=#ffffff;verticalAlign=top;strokeWidth=2;strokeColor=#0080F0;shadow=0;dashed=0;shape=mxgraph.ios7.icons.note;pointerEvents=1" vertex="1" parent="1">
          <mxGeometry x="-1019.4300000000001" y="1435.25" width="42.85" height="40" as="geometry" />
        </mxCell>
        <mxCell id="gog2KQi0PHtg9QcvCmXd-223" value="sonoszp, DHCP,&amp;nbsp;b8:e9:37:79:50:63" style="text;html=1;strokeColor=none;fillColor=none;align=center;verticalAlign=middle;whiteSpace=wrap;rounded=0;" vertex="1" parent="1">
          <mxGeometry x="-865" y="1435.25" width="60" height="30" as="geometry" />
        </mxCell>
        <mxCell id="gog2KQi0PHtg9QcvCmXd-224" value="" style="sketch=0;points=[[0.015,0.015,0],[0.985,0.015,0],[0.985,0.985,0],[0.015,0.985,0],[0.25,0,0],[0.5,0,0],[0.75,0,0],[1,0.25,0],[1,0.5,0],[1,0.75,0],[0.75,1,0],[0.5,1,0],[0.25,1,0],[0,0.75,0],[0,0.5,0],[0,0.25,0]];verticalLabelPosition=bottom;html=1;verticalAlign=top;aspect=fixed;align=center;pointerEvents=1;shape=mxgraph.cisco19.cell_phone;fillColor=#005073;strokeColor=none;" vertex="1" parent="1">
          <mxGeometry x="-1010.51" y="1495.25" width="25" height="50" as="geometry" />
        </mxCell>
        <mxCell id="gog2KQi0PHtg9QcvCmXd-225" value="galaxy-s21-5g,&amp;nbsp;DHCP,&amp;nbsp;de:01:99:c1:b3:34" style="text;html=1;strokeColor=none;fillColor=none;align=center;verticalAlign=middle;whiteSpace=wrap;rounded=0;" vertex="1" parent="1">
          <mxGeometry x="-942.5" y="1505.25" width="215" height="30" as="geometry" />
        </mxCell>
        <mxCell id="gog2KQi0PHtg9QcvCmXd-226" value="" style="shape=image;html=1;verticalAlign=top;verticalLabelPosition=bottom;labelBackgroundColor=#ffffff;imageAspect=0;aspect=fixed;image=https://cdn1.iconfinder.com/data/icons/iconoir-vol-3/24/question-mark-128.png;imageBackground=#000000;" vertex="1" parent="1">
          <mxGeometry x="-1031" y="1567.75" width="58" height="58" as="geometry" />
        </mxCell>
        <mxCell id="gog2KQi0PHtg9QcvCmXd-227" value="?, DHCP,&amp;nbsp;96:b7:7e:11:18:b7&lt;div style=&quot;box-sizing: border-box; display: flex; line-height: initial; color: rgba(232, 230, 227, 0.65); font-family: &amp;quot;UI Sans&amp;quot;, Lato, Arial, sans-serif; font-variant-ligatures: no-common-ligatures; text-align: start; background-color: rgb(10, 11, 11);&quot; class=&quot;css-x8zeb6&quot;&gt;&lt;/div&gt;" style="text;html=1;strokeColor=none;fillColor=none;align=center;verticalAlign=middle;whiteSpace=wrap;rounded=0;" vertex="1" parent="1">
          <mxGeometry x="-865" y="1575.25" width="60" height="30" as="geometry" />
        </mxCell>
        <mxCell id="gog2KQi0PHtg9QcvCmXd-228" value="" style="shape=image;html=1;verticalAlign=top;verticalLabelPosition=bottom;labelBackgroundColor=#ffffff;imageAspect=0;aspect=fixed;image=https://cdn1.iconfinder.com/data/icons/iconoir-vol-3/24/question-mark-128.png;imageBackground=#000000;" vertex="1" parent="1">
          <mxGeometry x="-1030" y="1645.25" width="58" height="58" as="geometry" />
        </mxCell>
        <mxCell id="gog2KQi0PHtg9QcvCmXd-229" value="?, DHCP,&amp;nbsp;92:cc:04:4c:b2:83&lt;br&gt;&lt;div style=&quot;box-sizing: border-box; display: flex; line-height: initial; color: rgba(232, 230, 227, 0.65); font-family: &amp;quot;UI Sans&amp;quot;, Lato, Arial, sans-serif; font-variant-ligatures: no-common-ligatures; text-align: start; background-color: rgb(10, 11, 11);&quot; class=&quot;css-x8zeb6&quot;&gt;&lt;/div&gt;&lt;div style=&quot;box-sizing: border-box; display: flex; line-height: initial; color: rgba(232, 230, 227, 0.65); font-family: &amp;quot;UI Sans&amp;quot;, Lato, Arial, sans-serif; font-variant-ligatures: no-common-ligatures; text-align: start; background-color: rgb(10, 11, 11);&quot; class=&quot;css-x8zeb6&quot;&gt;&lt;/div&gt;" style="text;html=1;strokeColor=none;fillColor=none;align=center;verticalAlign=middle;whiteSpace=wrap;rounded=0;" vertex="1" parent="1">
          <mxGeometry x="-870" y="1659.25" width="60" height="30" as="geometry" />
        </mxCell>
        <mxCell id="gog2KQi0PHtg9QcvCmXd-230" value="" style="shape=image;html=1;verticalAlign=top;verticalLabelPosition=bottom;labelBackgroundColor=#ffffff;imageAspect=0;aspect=fixed;image=https://cdn1.iconfinder.com/data/icons/iconoir-vol-3/24/question-mark-128.png;imageBackground=#000000;" vertex="1" parent="1">
          <mxGeometry x="-1030" y="1725.25" width="58" height="58" as="geometry" />
        </mxCell>
        <mxCell id="gog2KQi0PHtg9QcvCmXd-231" value="?, DHCP,&amp;nbsp;aa:dc:ee:38:28:01&lt;br&gt;&lt;div style=&quot;box-sizing: border-box; display: flex; line-height: initial; color: rgba(232, 230, 227, 0.65); font-family: &amp;quot;UI Sans&amp;quot;, Lato, Arial, sans-serif; font-variant-ligatures: no-common-ligatures; text-align: start; background-color: rgb(10, 11, 11);&quot; class=&quot;css-x8zeb6&quot;&gt;&lt;/div&gt;&lt;div style=&quot;box-sizing: border-box; display: flex; line-height: initial; color: rgba(232, 230, 227, 0.65); font-family: &amp;quot;UI Sans&amp;quot;, Lato, Arial, sans-serif; font-variant-ligatures: no-common-ligatures; text-align: start; background-color: rgb(10, 11, 11);&quot; class=&quot;css-x8zeb6&quot;&gt;&lt;/div&gt;&lt;div style=&quot;box-sizing: border-box; display: flex; line-height: initial; color: rgba(232, 230, 227, 0.65); font-family: &amp;quot;UI Sans&amp;quot;, Lato, Arial, sans-serif; font-variant-ligatures: no-common-ligatures; text-align: start; background-color: rgb(10, 11, 11);&quot; class=&quot;css-x8zeb6&quot;&gt;&lt;/div&gt;" style="text;html=1;strokeColor=none;fillColor=none;align=center;verticalAlign=middle;whiteSpace=wrap;rounded=0;" vertex="1" parent="1">
          <mxGeometry x="-875" y="1739.25" width="60" height="30" as="geometry" />
        </mxCell>
        <mxCell id="gog2KQi0PHtg9QcvCmXd-232" value="" style="points=[[0.13,0.02,0],[0.5,0,0],[0.87,0.02,0],[0.885,0.4,0],[0.985,0.985,0],[0.5,1,0],[0.015,0.985,0],[0.115,0.4,0]];verticalLabelPosition=bottom;sketch=0;html=1;verticalAlign=top;aspect=fixed;align=center;pointerEvents=1;shape=mxgraph.cisco19.laptop;fillColor=#005073;strokeColor=none;" vertex="1" parent="1">
          <mxGeometry x="-536" y="2903.75" width="50" height="35" as="geometry" />
        </mxCell>
        <mxCell id="gog2KQi0PHtg9QcvCmXd-234" value="WIN-KVQQJ5S1LOO, DHCP,&amp;nbsp;80:1f:02:f6:ae:64 (EdimaxTe)" style="text;html=1;strokeColor=none;fillColor=none;align=center;verticalAlign=middle;whiteSpace=wrap;rounded=0;" vertex="1" parent="1">
          <mxGeometry x="-935" y="1805.25" width="190" height="30" as="geometry" />
        </mxCell>
        <mxCell id="gog2KQi0PHtg9QcvCmXd-235" value="" style="shape=image;html=1;verticalAlign=top;verticalLabelPosition=bottom;labelBackgroundColor=#ffffff;imageAspect=0;aspect=fixed;image=https://cdn1.iconfinder.com/data/icons/iconoir-vol-3/24/question-mark-128.png;imageBackground=#000000;" vertex="1" parent="1">
          <mxGeometry x="-1030" y="1791.25" width="58" height="58" as="geometry" />
        </mxCell>
        <mxCell id="gog2KQi0PHtg9QcvCmXd-236" value="" style="sketch=0;points=[[0.015,0.015,0],[0.985,0.015,0],[0.985,0.985,0],[0.015,0.985,0],[0.25,0,0],[0.5,0,0],[0.75,0,0],[1,0.25,0],[1,0.5,0],[1,0.75,0],[0.75,1,0],[0.5,1,0],[0.25,1,0],[0,0.75,0],[0,0.5,0],[0,0.25,0]];verticalLabelPosition=bottom;html=1;verticalAlign=top;aspect=fixed;align=center;pointerEvents=1;shape=mxgraph.cisco19.cell_phone;fillColor=#005073;strokeColor=none;" vertex="1" parent="1">
          <mxGeometry x="-1016.75" y="1865.25" width="25" height="50" as="geometry" />
        </mxCell>
        <mxCell id="gog2KQi0PHtg9QcvCmXd-237" value="russell-s-z-fold5,&amp;nbsp;DHCP,&amp;nbsp;ee:24:41:55:0b:81" style="text;html=1;strokeColor=none;fillColor=none;align=center;verticalAlign=middle;whiteSpace=wrap;rounded=0;" vertex="1" parent="1">
          <mxGeometry x="-947.5" y="1875.25" width="215" height="30" as="geometry" />
        </mxCell>
        <mxCell id="gog2KQi0PHtg9QcvCmXd-238" value="" style="points=[[0.03,0.03,0],[0.5,0,0],[0.97,0.03,0],[1,0.4,0],[0.97,0.745,0],[0.5,1,0],[0.03,0.745,0],[0,0.4,0]];verticalLabelPosition=bottom;sketch=0;html=1;verticalAlign=top;aspect=fixed;align=center;pointerEvents=1;shape=mxgraph.cisco19.workstation;fillColor=#005073;strokeColor=none;" vertex="1" parent="1">
          <mxGeometry x="-1031" y="1935.25" width="50" height="40" as="geometry" />
        </mxCell>
        <mxCell id="gog2KQi0PHtg9QcvCmXd-239" value="DESKTOP-2598ODS,&amp;nbsp;DHCP,&amp;nbsp;F8:89:D2:61:30:4B" style="text;html=1;strokeColor=none;fillColor=none;align=center;verticalAlign=middle;whiteSpace=wrap;rounded=0;" vertex="1" parent="1">
          <mxGeometry x="-942.5" y="1945.25" width="215" height="30" as="geometry" />
        </mxCell>
        <mxCell id="gog2KQi0PHtg9QcvCmXd-240" value="" style="points=[[0.03,0.03,0],[0.5,0,0],[0.97,0.03,0],[1,0.4,0],[0.97,0.745,0],[0.5,1,0],[0.03,0.745,0],[0,0.4,0]];verticalLabelPosition=bottom;sketch=0;html=1;verticalAlign=top;aspect=fixed;align=center;pointerEvents=1;shape=mxgraph.cisco19.workstation;fillColor=#005073;strokeColor=none;" vertex="1" parent="1">
          <mxGeometry x="-1030.01" y="1995.25" width="50" height="40" as="geometry" />
        </mxCell>
        <mxCell id="gog2KQi0PHtg9QcvCmXd-241" value="Shop-Denny,&amp;nbsp;DHCP,&amp;nbsp;54:35:30:35:6d:a9&lt;br&gt;(windows 7)" style="text;html=1;strokeColor=none;fillColor=none;align=center;verticalAlign=middle;whiteSpace=wrap;rounded=0;" vertex="1" parent="1">
          <mxGeometry x="-942.5" y="2000.25" width="215" height="30" as="geometry" />
        </mxCell>
        <mxCell id="gog2KQi0PHtg9QcvCmXd-242" value="" style="shape=image;html=1;verticalAlign=top;verticalLabelPosition=bottom;labelBackgroundColor=#ffffff;imageAspect=0;aspect=fixed;image=https://cdn1.iconfinder.com/data/icons/iconoir-vol-3/24/question-mark-128.png;imageBackground=#000000;" vertex="1" parent="1">
          <mxGeometry x="-1033.25" y="2045.25" width="58" height="58" as="geometry" />
        </mxCell>
        <mxCell id="gog2KQi0PHtg9QcvCmXd-243" value="?, DHCP,&amp;nbsp;96:4e:38:fe:7d:e0" style="text;html=1;strokeColor=none;fillColor=none;align=center;verticalAlign=middle;whiteSpace=wrap;rounded=0;" vertex="1" parent="1">
          <mxGeometry x="-935" y="2059.25" width="190" height="30" as="geometry" />
        </mxCell>
        <mxCell id="gog2KQi0PHtg9QcvCmXd-244" value="" style="shape=image;html=1;verticalAlign=top;verticalLabelPosition=bottom;labelBackgroundColor=#ffffff;imageAspect=0;aspect=fixed;image=https://cdn1.iconfinder.com/data/icons/iconoir-vol-3/24/question-mark-128.png;imageBackground=#000000;" vertex="1" parent="1">
          <mxGeometry x="-1033.25" y="2115.25" width="58" height="58" as="geometry" />
        </mxCell>
        <mxCell id="gog2KQi0PHtg9QcvCmXd-245" value="?, DHCP,&amp;nbsp;0e:33:54:62:67:cf&lt;br&gt;&lt;div style=&quot;box-sizing: border-box; display: flex; line-height: initial; color: rgba(232, 230, 227, 0.65); font-family: &amp;quot;UI Sans&amp;quot;, Lato, Arial, sans-serif; font-variant-ligatures: no-common-ligatures; text-align: start; background-color: rgb(10, 11, 11);&quot; class=&quot;css-x8zeb6&quot;&gt;&lt;/div&gt;" style="text;html=1;strokeColor=none;fillColor=none;align=center;verticalAlign=middle;whiteSpace=wrap;rounded=0;" vertex="1" parent="1">
          <mxGeometry x="-935" y="2129.25" width="190" height="30" as="geometry" />
        </mxCell>
        <mxCell id="gog2KQi0PHtg9QcvCmXd-246" value="" style="points=[[0.03,0.03,0],[0.5,0,0],[0.97,0.03,0],[1,0.4,0],[0.97,0.745,0],[0.5,1,0],[0.03,0.745,0],[0,0.4,0]];verticalLabelPosition=bottom;sketch=0;html=1;verticalAlign=top;aspect=fixed;align=center;pointerEvents=1;shape=mxgraph.cisco19.workstation;fillColor=#005073;strokeColor=none;" vertex="1" parent="1">
          <mxGeometry x="-1029.25" y="2185.25" width="50" height="40" as="geometry" />
        </mxCell>
        <mxCell id="gog2KQi0PHtg9QcvCmXd-247" value="DESKTOP-AAEALUJ,&amp;nbsp;DHCP,&amp;nbsp;9c:da:3e:5e:94:1c&lt;br&gt;(not in connectwise)" style="text;html=1;strokeColor=none;fillColor=none;align=center;verticalAlign=middle;whiteSpace=wrap;rounded=0;" vertex="1" parent="1">
          <mxGeometry x="-947.5" y="2185.25" width="215" height="30" as="geometry" />
        </mxCell>
        <mxCell id="gog2KQi0PHtg9QcvCmXd-248" value="" style="shape=image;html=1;verticalAlign=top;verticalLabelPosition=bottom;labelBackgroundColor=#ffffff;imageAspect=0;aspect=fixed;image=https://cdn1.iconfinder.com/data/icons/iconoir-vol-3/24/question-mark-128.png;imageBackground=#000000;" vertex="1" parent="1">
          <mxGeometry x="-1033.25" y="2235.25" width="58" height="58" as="geometry" />
        </mxCell>
        <mxCell id="gog2KQi0PHtg9QcvCmXd-249" value="?, DHCP,&amp;nbsp;ae:ac:88:98:f4:b0&lt;br&gt;&lt;div style=&quot;box-sizing: border-box; display: flex; line-height: initial; color: rgba(232, 230, 227, 0.65); font-family: &amp;quot;UI Sans&amp;quot;, Lato, Arial, sans-serif; font-variant-ligatures: no-common-ligatures; text-align: start; background-color: rgb(10, 11, 11);&quot; class=&quot;css-x8zeb6&quot;&gt;&lt;/div&gt;&lt;div style=&quot;box-sizing: border-box; display: flex; line-height: initial; color: rgba(232, 230, 227, 0.65); font-family: &amp;quot;UI Sans&amp;quot;, Lato, Arial, sans-serif; font-variant-ligatures: no-common-ligatures; text-align: start; background-color: rgb(10, 11, 11);&quot; class=&quot;css-x8zeb6&quot;&gt;&lt;/div&gt;" style="text;html=1;strokeColor=none;fillColor=none;align=center;verticalAlign=middle;whiteSpace=wrap;rounded=0;" vertex="1" parent="1">
          <mxGeometry x="-935" y="2249.25" width="190" height="30" as="geometry" />
        </mxCell>
        <mxCell id="gog2KQi0PHtg9QcvCmXd-250" value="" style="shape=image;html=1;verticalAlign=top;verticalLabelPosition=bottom;labelBackgroundColor=#ffffff;imageAspect=0;aspect=fixed;image=https://cdn1.iconfinder.com/data/icons/iconoir-vol-3/24/question-mark-128.png;imageBackground=#000000;" vertex="1" parent="1">
          <mxGeometry x="-1033.25" y="2305.25" width="58" height="58" as="geometry" />
        </mxCell>
        <mxCell id="gog2KQi0PHtg9QcvCmXd-251" value="?, DHCP,&amp;nbsp;f6:b3:ed:f2:df:18&lt;br&gt;&lt;div style=&quot;box-sizing: border-box; display: flex; line-height: initial; color: rgba(232, 230, 227, 0.65); font-family: &amp;quot;UI Sans&amp;quot;, Lato, Arial, sans-serif; font-variant-ligatures: no-common-ligatures; text-align: start; background-color: rgb(10, 11, 11);&quot; class=&quot;css-x8zeb6&quot;&gt;&lt;/div&gt;&lt;div style=&quot;box-sizing: border-box; display: flex; line-height: initial; color: rgba(232, 230, 227, 0.65); font-family: &amp;quot;UI Sans&amp;quot;, Lato, Arial, sans-serif; font-variant-ligatures: no-common-ligatures; text-align: start; background-color: rgb(10, 11, 11);&quot; class=&quot;css-x8zeb6&quot;&gt;&lt;/div&gt;&lt;div style=&quot;box-sizing: border-box; display: flex; line-height: initial; color: rgba(232, 230, 227, 0.65); font-family: &amp;quot;UI Sans&amp;quot;, Lato, Arial, sans-serif; font-variant-ligatures: no-common-ligatures; text-align: start; background-color: rgb(10, 11, 11);&quot; class=&quot;css-x8zeb6&quot;&gt;&lt;/div&gt;" style="text;html=1;strokeColor=none;fillColor=none;align=center;verticalAlign=middle;whiteSpace=wrap;rounded=0;" vertex="1" parent="1">
          <mxGeometry x="-935" y="2319.25" width="190" height="30" as="geometry" />
        </mxCell>
        <mxCell id="gog2KQi0PHtg9QcvCmXd-252" value="" style="shape=image;html=1;verticalAlign=top;verticalLabelPosition=bottom;labelBackgroundColor=#ffffff;imageAspect=0;aspect=fixed;image=https://cdn1.iconfinder.com/data/icons/iconoir-vol-3/24/question-mark-128.png;imageBackground=#000000;" vertex="1" parent="1">
          <mxGeometry x="-1033.25" y="2375.25" width="58" height="58" as="geometry" />
        </mxCell>
        <mxCell id="gog2KQi0PHtg9QcvCmXd-253" value="?, DHCP, ee:79:d1:84:ac:a2&lt;br&gt;&lt;div style=&quot;box-sizing: border-box; display: flex; line-height: initial; color: rgba(232, 230, 227, 0.65); font-family: &amp;quot;UI Sans&amp;quot;, Lato, Arial, sans-serif; font-variant-ligatures: no-common-ligatures; text-align: start; background-color: rgb(10, 11, 11);&quot; class=&quot;css-x8zeb6&quot;&gt;&lt;/div&gt;&lt;div style=&quot;box-sizing: border-box; display: flex; line-height: initial; color: rgba(232, 230, 227, 0.65); font-family: &amp;quot;UI Sans&amp;quot;, Lato, Arial, sans-serif; font-variant-ligatures: no-common-ligatures; text-align: start; background-color: rgb(10, 11, 11);&quot; class=&quot;css-x8zeb6&quot;&gt;&lt;/div&gt;&lt;div style=&quot;box-sizing: border-box; display: flex; line-height: initial; color: rgba(232, 230, 227, 0.65); font-family: &amp;quot;UI Sans&amp;quot;, Lato, Arial, sans-serif; font-variant-ligatures: no-common-ligatures; text-align: start; background-color: rgb(10, 11, 11);&quot; class=&quot;css-x8zeb6&quot;&gt;&lt;/div&gt;&lt;div style=&quot;box-sizing: border-box; display: flex; line-height: initial; color: rgba(232, 230, 227, 0.65); font-family: &amp;quot;UI Sans&amp;quot;, Lato, Arial, sans-serif; font-variant-ligatures: no-common-ligatures; text-align: start; background-color: rgb(10, 11, 11);&quot; class=&quot;css-x8zeb6&quot;&gt;&lt;/div&gt;" style="text;html=1;strokeColor=none;fillColor=none;align=center;verticalAlign=middle;whiteSpace=wrap;rounded=0;" vertex="1" parent="1">
          <mxGeometry x="-935" y="2389.25" width="190" height="30" as="geometry" />
        </mxCell>
        <mxCell id="gog2KQi0PHtg9QcvCmXd-254" value="" style="shape=image;html=1;verticalAlign=top;verticalLabelPosition=bottom;labelBackgroundColor=#ffffff;imageAspect=0;aspect=fixed;image=https://cdn1.iconfinder.com/data/icons/iconoir-vol-3/24/question-mark-128.png;imageBackground=#000000;" vertex="1" parent="1">
          <mxGeometry x="-1033.25" y="2445.25" width="58" height="58" as="geometry" />
        </mxCell>
        <mxCell id="gog2KQi0PHtg9QcvCmXd-255" value="?, DHCP,&amp;nbsp;72:da:36:dc:8d:68&lt;br&gt;&lt;div style=&quot;box-sizing: border-box; display: flex; line-height: initial; color: rgba(232, 230, 227, 0.65); font-family: &amp;quot;UI Sans&amp;quot;, Lato, Arial, sans-serif; font-variant-ligatures: no-common-ligatures; text-align: start; background-color: rgb(10, 11, 11);&quot; class=&quot;css-x8zeb6&quot;&gt;&lt;/div&gt;&lt;div style=&quot;box-sizing: border-box; display: flex; line-height: initial; color: rgba(232, 230, 227, 0.65); font-family: &amp;quot;UI Sans&amp;quot;, Lato, Arial, sans-serif; font-variant-ligatures: no-common-ligatures; text-align: start; background-color: rgb(10, 11, 11);&quot; class=&quot;css-x8zeb6&quot;&gt;&lt;/div&gt;&lt;div style=&quot;box-sizing: border-box; display: flex; line-height: initial; color: rgba(232, 230, 227, 0.65); font-family: &amp;quot;UI Sans&amp;quot;, Lato, Arial, sans-serif; font-variant-ligatures: no-common-ligatures; text-align: start; background-color: rgb(10, 11, 11);&quot; class=&quot;css-x8zeb6&quot;&gt;&lt;/div&gt;&lt;div style=&quot;box-sizing: border-box; display: flex; line-height: initial; color: rgba(232, 230, 227, 0.65); font-family: &amp;quot;UI Sans&amp;quot;, Lato, Arial, sans-serif; font-variant-ligatures: no-common-ligatures; text-align: start; background-color: rgb(10, 11, 11);&quot; class=&quot;css-x8zeb6&quot;&gt;&lt;/div&gt;&lt;div style=&quot;box-sizing: border-box; display: flex; line-height: initial; color: rgba(232, 230, 227, 0.65); font-family: &amp;quot;UI Sans&amp;quot;, Lato, Arial, sans-serif; font-variant-ligatures: no-common-ligatures; text-align: start; background-color: rgb(10, 11, 11);&quot; class=&quot;css-x8zeb6&quot;&gt;&lt;/div&gt;" style="text;html=1;strokeColor=none;fillColor=none;align=center;verticalAlign=middle;whiteSpace=wrap;rounded=0;" vertex="1" parent="1">
          <mxGeometry x="-935" y="2459.25" width="190" height="30" as="geometry" />
        </mxCell>
        <mxCell id="gog2KQi0PHtg9QcvCmXd-256" value="" style="points=[[0.03,0.03,0],[0.5,0,0],[0.97,0.03,0],[1,0.4,0],[0.97,0.745,0],[0.5,1,0],[0.03,0.745,0],[0,0.4,0]];verticalLabelPosition=bottom;sketch=0;html=1;verticalAlign=top;aspect=fixed;align=center;pointerEvents=1;shape=mxgraph.cisco19.workstation;fillColor=#005073;strokeColor=none;" vertex="1" parent="1">
          <mxGeometry x="-1029.25" y="2515.25" width="50" height="40" as="geometry" />
        </mxCell>
        <mxCell id="gog2KQi0PHtg9QcvCmXd-257" value="DESKTOP-877KI65, DHCP,&amp;nbsp;5c:ba:ef:a9:b9:55&lt;div style=&quot;box-sizing: border-box; display: flex; line-height: initial; color: rgba(232, 230, 227, 0.65); font-family: &amp;quot;UI Sans&amp;quot;, Lato, Arial, sans-serif; font-variant-ligatures: no-common-ligatures; text-align: start; background-color: rgb(10, 11, 11);&quot; class=&quot;css-x8zeb6&quot;&gt;&lt;/div&gt;&lt;div style=&quot;box-sizing: border-box; display: flex; line-height: initial; color: rgba(232, 230, 227, 0.65); font-family: &amp;quot;UI Sans&amp;quot;, Lato, Arial, sans-serif; font-variant-ligatures: no-common-ligatures; text-align: start; background-color: rgb(10, 11, 11);&quot; class=&quot;css-x8zeb6&quot;&gt;&lt;/div&gt;&lt;div style=&quot;box-sizing: border-box; display: flex; line-height: initial; color: rgba(232, 230, 227, 0.65); font-family: &amp;quot;UI Sans&amp;quot;, Lato, Arial, sans-serif; font-variant-ligatures: no-common-ligatures; text-align: start; background-color: rgb(10, 11, 11);&quot; class=&quot;css-x8zeb6&quot;&gt;&lt;/div&gt;&lt;div style=&quot;box-sizing: border-box; display: flex; line-height: initial; color: rgba(232, 230, 227, 0.65); font-family: &amp;quot;UI Sans&amp;quot;, Lato, Arial, sans-serif; font-variant-ligatures: no-common-ligatures; text-align: start; background-color: rgb(10, 11, 11);&quot; class=&quot;css-x8zeb6&quot;&gt;&lt;/div&gt;&lt;div style=&quot;box-sizing: border-box; display: flex; line-height: initial; color: rgba(232, 230, 227, 0.65); font-family: &amp;quot;UI Sans&amp;quot;, Lato, Arial, sans-serif; font-variant-ligatures: no-common-ligatures; text-align: start; background-color: rgb(10, 11, 11);&quot; class=&quot;css-x8zeb6&quot;&gt;&lt;/div&gt;" style="text;html=1;strokeColor=none;fillColor=none;align=center;verticalAlign=middle;whiteSpace=wrap;rounded=0;" vertex="1" parent="1">
          <mxGeometry x="-935" y="2515.25" width="190" height="30" as="geometry" />
        </mxCell>
        <mxCell id="gog2KQi0PHtg9QcvCmXd-258" value="" style="shape=image;html=1;verticalAlign=top;verticalLabelPosition=bottom;labelBackgroundColor=#ffffff;imageAspect=0;aspect=fixed;image=https://cdn1.iconfinder.com/data/icons/iconoir-vol-3/24/question-mark-128.png;imageBackground=#000000;" vertex="1" parent="1">
          <mxGeometry x="-1034" y="2565.25" width="58" height="58" as="geometry" />
        </mxCell>
        <mxCell id="gog2KQi0PHtg9QcvCmXd-259" value="?, DHCP,&amp;nbsp;72:a5:eb:e3:59:60&lt;div style=&quot;box-sizing: border-box; display: flex; line-height: initial; color: rgba(232, 230, 227, 0.65); font-family: &amp;quot;UI Sans&amp;quot;, Lato, Arial, sans-serif; font-variant-ligatures: no-common-ligatures; text-align: start; background-color: rgb(10, 11, 11);&quot; class=&quot;css-x8zeb6&quot;&gt;&lt;/div&gt;&lt;div style=&quot;box-sizing: border-box; display: flex; line-height: initial; color: rgba(232, 230, 227, 0.65); font-family: &amp;quot;UI Sans&amp;quot;, Lato, Arial, sans-serif; font-variant-ligatures: no-common-ligatures; text-align: start; background-color: rgb(10, 11, 11);&quot; class=&quot;css-x8zeb6&quot;&gt;&lt;/div&gt;&lt;div style=&quot;box-sizing: border-box; display: flex; line-height: initial; color: rgba(232, 230, 227, 0.65); font-family: &amp;quot;UI Sans&amp;quot;, Lato, Arial, sans-serif; font-variant-ligatures: no-common-ligatures; text-align: start; background-color: rgb(10, 11, 11);&quot; class=&quot;css-x8zeb6&quot;&gt;&lt;/div&gt;&lt;div style=&quot;box-sizing: border-box; display: flex; line-height: initial; color: rgba(232, 230, 227, 0.65); font-family: &amp;quot;UI Sans&amp;quot;, Lato, Arial, sans-serif; font-variant-ligatures: no-common-ligatures; text-align: start; background-color: rgb(10, 11, 11);&quot; class=&quot;css-x8zeb6&quot;&gt;&lt;/div&gt;&lt;div style=&quot;box-sizing: border-box; display: flex; line-height: initial; color: rgba(232, 230, 227, 0.65); font-family: &amp;quot;UI Sans&amp;quot;, Lato, Arial, sans-serif; font-variant-ligatures: no-common-ligatures; text-align: start; background-color: rgb(10, 11, 11);&quot; class=&quot;css-x8zeb6&quot;&gt;&lt;/div&gt;" style="text;html=1;strokeColor=none;fillColor=none;align=center;verticalAlign=middle;whiteSpace=wrap;rounded=0;" vertex="1" parent="1">
          <mxGeometry x="-935" y="2579.25" width="190" height="30" as="geometry" />
        </mxCell>
        <mxCell id="gog2KQi0PHtg9QcvCmXd-261" value="" style="shape=image;html=1;verticalAlign=top;verticalLabelPosition=bottom;labelBackgroundColor=#ffffff;imageAspect=0;aspect=fixed;image=https://cdn1.iconfinder.com/data/icons/iconoir-vol-3/24/question-mark-128.png;imageBackground=#000000;" vertex="1" parent="1">
          <mxGeometry x="-1033.25" y="2635.25" width="58" height="58" as="geometry" />
        </mxCell>
        <mxCell id="gog2KQi0PHtg9QcvCmXd-262" value="?, DHCP,&amp;nbsp;9e:39:4b:cb:ac:dd&lt;br&gt;&lt;div style=&quot;box-sizing: border-box; display: flex; line-height: initial; color: rgba(232, 230, 227, 0.65); font-family: &amp;quot;UI Sans&amp;quot;, Lato, Arial, sans-serif; font-variant-ligatures: no-common-ligatures; text-align: start; background-color: rgb(10, 11, 11);&quot; class=&quot;css-x8zeb6&quot;&gt;&lt;/div&gt;&lt;div style=&quot;box-sizing: border-box; display: flex; line-height: initial; color: rgba(232, 230, 227, 0.65); font-family: &amp;quot;UI Sans&amp;quot;, Lato, Arial, sans-serif; font-variant-ligatures: no-common-ligatures; text-align: start; background-color: rgb(10, 11, 11);&quot; class=&quot;css-x8zeb6&quot;&gt;&lt;/div&gt;&lt;div style=&quot;box-sizing: border-box; display: flex; line-height: initial; color: rgba(232, 230, 227, 0.65); font-family: &amp;quot;UI Sans&amp;quot;, Lato, Arial, sans-serif; font-variant-ligatures: no-common-ligatures; text-align: start; background-color: rgb(10, 11, 11);&quot; class=&quot;css-x8zeb6&quot;&gt;&lt;/div&gt;&lt;div style=&quot;box-sizing: border-box; display: flex; line-height: initial; color: rgba(232, 230, 227, 0.65); font-family: &amp;quot;UI Sans&amp;quot;, Lato, Arial, sans-serif; font-variant-ligatures: no-common-ligatures; text-align: start; background-color: rgb(10, 11, 11);&quot; class=&quot;css-x8zeb6&quot;&gt;&lt;/div&gt;&lt;div style=&quot;box-sizing: border-box; display: flex; line-height: initial; color: rgba(232, 230, 227, 0.65); font-family: &amp;quot;UI Sans&amp;quot;, Lato, Arial, sans-serif; font-variant-ligatures: no-common-ligatures; text-align: start; background-color: rgb(10, 11, 11);&quot; class=&quot;css-x8zeb6&quot;&gt;&lt;/div&gt;&lt;div style=&quot;box-sizing: border-box; display: flex; line-height: initial; color: rgba(232, 230, 227, 0.65); font-family: &amp;quot;UI Sans&amp;quot;, Lato, Arial, sans-serif; font-variant-ligatures: no-common-ligatures; text-align: start; background-color: rgb(10, 11, 11);&quot; class=&quot;css-x8zeb6&quot;&gt;&lt;/div&gt;" style="text;html=1;strokeColor=none;fillColor=none;align=center;verticalAlign=middle;whiteSpace=wrap;rounded=0;" vertex="1" parent="1">
          <mxGeometry x="-930" y="2649.25" width="190" height="30" as="geometry" />
        </mxCell>
        <mxCell id="gog2KQi0PHtg9QcvCmXd-263" value="" style="points=[[0.03,0.03,0],[0.5,0,0],[0.97,0.03,0],[1,0.4,0],[0.97,0.745,0],[0.5,1,0],[0.03,0.745,0],[0,0.4,0]];verticalLabelPosition=bottom;sketch=0;html=1;verticalAlign=top;aspect=fixed;align=center;pointerEvents=1;shape=mxgraph.cisco19.workstation;fillColor=#005073;strokeColor=none;" vertex="1" parent="1">
          <mxGeometry x="-1029.25" y="2705.25" width="50" height="40" as="geometry" />
        </mxCell>
        <mxCell id="gog2KQi0PHtg9QcvCmXd-264" value="DESKTOP-1CPP874, DHCP,&amp;nbsp;18:47:3d:2e:23:29&lt;div style=&quot;box-sizing: border-box; display: flex; line-height: initial; color: rgba(232, 230, 227, 0.65); font-family: &amp;quot;UI Sans&amp;quot;, Lato, Arial, sans-serif; font-variant-ligatures: no-common-ligatures; text-align: start; background-color: rgb(10, 11, 11);&quot; class=&quot;css-x8zeb6&quot;&gt;&lt;/div&gt;&lt;div style=&quot;box-sizing: border-box; display: flex; line-height: initial; color: rgba(232, 230, 227, 0.65); font-family: &amp;quot;UI Sans&amp;quot;, Lato, Arial, sans-serif; font-variant-ligatures: no-common-ligatures; text-align: start; background-color: rgb(10, 11, 11);&quot; class=&quot;css-x8zeb6&quot;&gt;&lt;/div&gt;&lt;div style=&quot;box-sizing: border-box; display: flex; line-height: initial; color: rgba(232, 230, 227, 0.65); font-family: &amp;quot;UI Sans&amp;quot;, Lato, Arial, sans-serif; font-variant-ligatures: no-common-ligatures; text-align: start; background-color: rgb(10, 11, 11);&quot; class=&quot;css-x8zeb6&quot;&gt;&lt;/div&gt;&lt;div style=&quot;box-sizing: border-box; display: flex; line-height: initial; color: rgba(232, 230, 227, 0.65); font-family: &amp;quot;UI Sans&amp;quot;, Lato, Arial, sans-serif; font-variant-ligatures: no-common-ligatures; text-align: start; background-color: rgb(10, 11, 11);&quot; class=&quot;css-x8zeb6&quot;&gt;&lt;/div&gt;&lt;div style=&quot;box-sizing: border-box; display: flex; line-height: initial; color: rgba(232, 230, 227, 0.65); font-family: &amp;quot;UI Sans&amp;quot;, Lato, Arial, sans-serif; font-variant-ligatures: no-common-ligatures; text-align: start; background-color: rgb(10, 11, 11);&quot; class=&quot;css-x8zeb6&quot;&gt;&lt;/div&gt;" style="text;html=1;strokeColor=none;fillColor=none;align=center;verticalAlign=middle;whiteSpace=wrap;rounded=0;" vertex="1" parent="1">
          <mxGeometry x="-930" y="2710.25" width="190" height="30" as="geometry" />
        </mxCell>
        <mxCell id="gog2KQi0PHtg9QcvCmXd-265" value="" style="points=[[0.03,0.03,0],[0.5,0,0],[0.97,0.03,0],[1,0.4,0],[0.97,0.745,0],[0.5,1,0],[0.03,0.745,0],[0,0.4,0]];verticalLabelPosition=bottom;sketch=0;html=1;verticalAlign=top;aspect=fixed;align=center;pointerEvents=1;shape=mxgraph.cisco19.workstation;fillColor=#005073;strokeColor=none;" vertex="1" parent="1">
          <mxGeometry x="-1029.25" y="2755.25" width="50" height="40" as="geometry" />
        </mxCell>
        <mxCell id="gog2KQi0PHtg9QcvCmXd-266" value="DESKTOP-9H88QL5, DHCP,&amp;nbsp;18:47:3d:24:e9:a3&lt;div style=&quot;box-sizing: border-box; display: flex; line-height: initial; color: rgba(232, 230, 227, 0.65); font-family: &amp;quot;UI Sans&amp;quot;, Lato, Arial, sans-serif; font-variant-ligatures: no-common-ligatures; text-align: start; background-color: rgb(10, 11, 11);&quot; class=&quot;css-x8zeb6&quot;&gt;&lt;/div&gt;&lt;div style=&quot;box-sizing: border-box; display: flex; line-height: initial; color: rgba(232, 230, 227, 0.65); font-family: &amp;quot;UI Sans&amp;quot;, Lato, Arial, sans-serif; font-variant-ligatures: no-common-ligatures; text-align: start; background-color: rgb(10, 11, 11);&quot; class=&quot;css-x8zeb6&quot;&gt;&lt;/div&gt;&lt;div style=&quot;box-sizing: border-box; display: flex; line-height: initial; color: rgba(232, 230, 227, 0.65); font-family: &amp;quot;UI Sans&amp;quot;, Lato, Arial, sans-serif; font-variant-ligatures: no-common-ligatures; text-align: start; background-color: rgb(10, 11, 11);&quot; class=&quot;css-x8zeb6&quot;&gt;&lt;/div&gt;&lt;div style=&quot;box-sizing: border-box; display: flex; line-height: initial; color: rgba(232, 230, 227, 0.65); font-family: &amp;quot;UI Sans&amp;quot;, Lato, Arial, sans-serif; font-variant-ligatures: no-common-ligatures; text-align: start; background-color: rgb(10, 11, 11);&quot; class=&quot;css-x8zeb6&quot;&gt;&lt;/div&gt;&lt;div style=&quot;box-sizing: border-box; display: flex; line-height: initial; color: rgba(232, 230, 227, 0.65); font-family: &amp;quot;UI Sans&amp;quot;, Lato, Arial, sans-serif; font-variant-ligatures: no-common-ligatures; text-align: start; background-color: rgb(10, 11, 11);&quot; class=&quot;css-x8zeb6&quot;&gt;&lt;/div&gt;" style="text;html=1;strokeColor=none;fillColor=none;align=center;verticalAlign=middle;whiteSpace=wrap;rounded=0;" vertex="1" parent="1">
          <mxGeometry x="-935" y="2760.25" width="190" height="30" as="geometry" />
        </mxCell>
        <mxCell id="gog2KQi0PHtg9QcvCmXd-267" value="" style="sketch=0;points=[[0.015,0.015,0],[0.985,0.015,0],[0.985,0.985,0],[0.015,0.985,0],[0.25,0,0],[0.5,0,0],[0.75,0,0],[1,0.25,0],[1,0.5,0],[1,0.75,0],[0.75,1,0],[0.5,1,0],[0.25,1,0],[0,0.75,0],[0,0.5,0],[0,0.25,0]];verticalLabelPosition=bottom;html=1;verticalAlign=top;aspect=fixed;align=center;pointerEvents=1;shape=mxgraph.cisco19.cell_phone;fillColor=#005073;strokeColor=none;" vertex="1" parent="1">
          <mxGeometry x="-1014.5" y="2815.25" width="25" height="50" as="geometry" />
        </mxCell>
        <mxCell id="gog2KQi0PHtg9QcvCmXd-268" value="android-2342b092d98a5601,&amp;nbsp;DHCP,&amp;nbsp;6c:c3:74:f3:9a:5e" style="text;html=1;strokeColor=none;fillColor=none;align=center;verticalAlign=middle;whiteSpace=wrap;rounded=0;" vertex="1" parent="1">
          <mxGeometry x="-942.5" y="2825.25" width="215" height="30" as="geometry" />
        </mxCell>
        <mxCell id="gog2KQi0PHtg9QcvCmXd-269" value="" style="points=[[0.03,0.03,0],[0.5,0,0],[0.97,0.03,0],[1,0.4,0],[0.97,0.745,0],[0.5,1,0],[0.03,0.745,0],[0,0.4,0]];verticalLabelPosition=bottom;sketch=0;html=1;verticalAlign=top;aspect=fixed;align=center;pointerEvents=1;shape=mxgraph.cisco19.workstation;fillColor=#005073;strokeColor=none;" vertex="1" parent="1">
          <mxGeometry x="-1029.25" y="2875.25" width="50" height="40" as="geometry" />
        </mxCell>
        <mxCell id="gog2KQi0PHtg9QcvCmXd-270" value="DESKTOP-FQ5OGTL,&amp;nbsp;DHCP,&amp;nbsp;f8:89:d2:61:27:c7&lt;div style=&quot;box-sizing: border-box; display: flex; line-height: initial; color: rgba(232, 230, 227, 0.65); font-family: &amp;quot;UI Sans&amp;quot;, Lato, Arial, sans-serif; font-variant-ligatures: no-common-ligatures; text-align: start; background-color: rgb(10, 11, 11);&quot; class=&quot;css-x8zeb6&quot;&gt;&lt;/div&gt;&lt;div style=&quot;box-sizing: border-box; display: flex; line-height: initial; color: rgba(232, 230, 227, 0.65); font-family: &amp;quot;UI Sans&amp;quot;, Lato, Arial, sans-serif; font-variant-ligatures: no-common-ligatures; text-align: start; background-color: rgb(10, 11, 11);&quot; class=&quot;css-x8zeb6&quot;&gt;&lt;/div&gt;&lt;div style=&quot;box-sizing: border-box; display: flex; line-height: initial; color: rgba(232, 230, 227, 0.65); font-family: &amp;quot;UI Sans&amp;quot;, Lato, Arial, sans-serif; font-variant-ligatures: no-common-ligatures; text-align: start; background-color: rgb(10, 11, 11);&quot; class=&quot;css-x8zeb6&quot;&gt;&lt;/div&gt;&lt;div style=&quot;box-sizing: border-box; display: flex; line-height: initial; color: rgba(232, 230, 227, 0.65); font-family: &amp;quot;UI Sans&amp;quot;, Lato, Arial, sans-serif; font-variant-ligatures: no-common-ligatures; text-align: start; background-color: rgb(10, 11, 11);&quot; class=&quot;css-x8zeb6&quot;&gt;&lt;/div&gt;&lt;div style=&quot;box-sizing: border-box; display: flex; line-height: initial; color: rgba(232, 230, 227, 0.65); font-family: &amp;quot;UI Sans&amp;quot;, Lato, Arial, sans-serif; font-variant-ligatures: no-common-ligatures; text-align: start; background-color: rgb(10, 11, 11);&quot; class=&quot;css-x8zeb6&quot;&gt;&lt;/div&gt;" style="text;html=1;strokeColor=none;fillColor=none;align=center;verticalAlign=middle;whiteSpace=wrap;rounded=0;" vertex="1" parent="1">
          <mxGeometry x="-935" y="2875.25" width="190" height="30" as="geometry" />
        </mxCell>
        <mxCell id="gog2KQi0PHtg9QcvCmXd-271" value="" style="points=[[0.03,0.03,0],[0.5,0,0],[0.97,0.03,0],[1,0.4,0],[0.97,0.745,0],[0.5,1,0],[0.03,0.745,0],[0,0.4,0]];verticalLabelPosition=bottom;sketch=0;html=1;verticalAlign=top;aspect=fixed;align=center;pointerEvents=1;shape=mxgraph.cisco19.workstation;fillColor=#005073;strokeColor=none;" vertex="1" parent="1">
          <mxGeometry x="-1030.01" y="2925.25" width="50" height="40" as="geometry" />
        </mxCell>
        <mxCell id="gog2KQi0PHtg9QcvCmXd-272" value="DESKTOP-RTRTAC6,&amp;nbsp;DHCP,&amp;nbsp;d4:e9:8a:f2:ab:43&lt;div style=&quot;box-sizing: border-box; display: flex; line-height: initial; color: rgba(232, 230, 227, 0.65); font-family: &amp;quot;UI Sans&amp;quot;, Lato, Arial, sans-serif; font-variant-ligatures: no-common-ligatures; text-align: start; background-color: rgb(10, 11, 11);&quot; class=&quot;css-x8zeb6&quot;&gt;&lt;/div&gt;&lt;div style=&quot;box-sizing: border-box; display: flex; line-height: initial; color: rgba(232, 230, 227, 0.65); font-family: &amp;quot;UI Sans&amp;quot;, Lato, Arial, sans-serif; font-variant-ligatures: no-common-ligatures; text-align: start; background-color: rgb(10, 11, 11);&quot; class=&quot;css-x8zeb6&quot;&gt;&lt;/div&gt;&lt;div style=&quot;box-sizing: border-box; display: flex; line-height: initial; color: rgba(232, 230, 227, 0.65); font-family: &amp;quot;UI Sans&amp;quot;, Lato, Arial, sans-serif; font-variant-ligatures: no-common-ligatures; text-align: start; background-color: rgb(10, 11, 11);&quot; class=&quot;css-x8zeb6&quot;&gt;&lt;/div&gt;&lt;div style=&quot;box-sizing: border-box; display: flex; line-height: initial; color: rgba(232, 230, 227, 0.65); font-family: &amp;quot;UI Sans&amp;quot;, Lato, Arial, sans-serif; font-variant-ligatures: no-common-ligatures; text-align: start; background-color: rgb(10, 11, 11);&quot; class=&quot;css-x8zeb6&quot;&gt;&lt;/div&gt;&lt;div style=&quot;box-sizing: border-box; display: flex; line-height: initial; color: rgba(232, 230, 227, 0.65); font-family: &amp;quot;UI Sans&amp;quot;, Lato, Arial, sans-serif; font-variant-ligatures: no-common-ligatures; text-align: start; background-color: rgb(10, 11, 11);&quot; class=&quot;css-x8zeb6&quot;&gt;&lt;/div&gt;" style="text;html=1;strokeColor=none;fillColor=none;align=center;verticalAlign=middle;whiteSpace=wrap;rounded=0;" vertex="1" parent="1">
          <mxGeometry x="-940" y="2925.25" width="190" height="30" as="geometry" />
        </mxCell>
        <mxCell id="gog2KQi0PHtg9QcvCmXd-273" value="" style="sketch=0;points=[[0.015,0.015,0],[0.985,0.015,0],[0.985,0.985,0],[0.015,0.985,0],[0.25,0,0],[0.5,0,0],[0.75,0,0],[1,0.25,0],[1,0.5,0],[1,0.75,0],[0.75,1,0],[0.5,1,0],[0.25,1,0],[0,0.75,0],[0,0.5,0],[0,0.25,0]];verticalLabelPosition=bottom;html=1;verticalAlign=top;aspect=fixed;align=center;pointerEvents=1;shape=mxgraph.cisco19.cell_phone;fillColor=#005073;strokeColor=none;" vertex="1" parent="1">
          <mxGeometry x="-1017.5" y="2975.25" width="25" height="50" as="geometry" />
        </mxCell>
        <mxCell id="gog2KQi0PHtg9QcvCmXd-274" value="mark-s-s22-ultra,&amp;nbsp;DHCP,&amp;nbsp;f2:a7:0e:f7:c0:7f" style="text;html=1;strokeColor=none;fillColor=none;align=center;verticalAlign=middle;whiteSpace=wrap;rounded=0;" vertex="1" parent="1">
          <mxGeometry x="-952.5" y="2985.25" width="215" height="30" as="geometry" />
        </mxCell>
        <mxCell id="gog2KQi0PHtg9QcvCmXd-275" value="" style="shape=image;html=1;verticalAlign=top;verticalLabelPosition=bottom;labelBackgroundColor=#ffffff;imageAspect=0;aspect=fixed;image=https://cdn1.iconfinder.com/data/icons/iconoir-vol-3/24/question-mark-128.png;imageBackground=#000000;" vertex="1" parent="1">
          <mxGeometry x="-1035" y="3045.25" width="58" height="58" as="geometry" />
        </mxCell>
        <mxCell id="gog2KQi0PHtg9QcvCmXd-276" value="?, DHCP,&amp;nbsp;1e:10:db:e7:45:3c&lt;br&gt;&lt;div style=&quot;box-sizing: border-box; display: flex; line-height: initial; color: rgba(232, 230, 227, 0.65); font-family: &amp;quot;UI Sans&amp;quot;, Lato, Arial, sans-serif; font-variant-ligatures: no-common-ligatures; text-align: start; background-color: rgb(10, 11, 11);&quot; class=&quot;css-x8zeb6&quot;&gt;&lt;/div&gt;&lt;div style=&quot;box-sizing: border-box; display: flex; line-height: initial; color: rgba(232, 230, 227, 0.65); font-family: &amp;quot;UI Sans&amp;quot;, Lato, Arial, sans-serif; font-variant-ligatures: no-common-ligatures; text-align: start; background-color: rgb(10, 11, 11);&quot; class=&quot;css-x8zeb6&quot;&gt;&lt;/div&gt;&lt;div style=&quot;box-sizing: border-box; display: flex; line-height: initial; color: rgba(232, 230, 227, 0.65); font-family: &amp;quot;UI Sans&amp;quot;, Lato, Arial, sans-serif; font-variant-ligatures: no-common-ligatures; text-align: start; background-color: rgb(10, 11, 11);&quot; class=&quot;css-x8zeb6&quot;&gt;&lt;/div&gt;&lt;div style=&quot;box-sizing: border-box; display: flex; line-height: initial; color: rgba(232, 230, 227, 0.65); font-family: &amp;quot;UI Sans&amp;quot;, Lato, Arial, sans-serif; font-variant-ligatures: no-common-ligatures; text-align: start; background-color: rgb(10, 11, 11);&quot; class=&quot;css-x8zeb6&quot;&gt;&lt;/div&gt;&lt;div style=&quot;box-sizing: border-box; display: flex; line-height: initial; color: rgba(232, 230, 227, 0.65); font-family: &amp;quot;UI Sans&amp;quot;, Lato, Arial, sans-serif; font-variant-ligatures: no-common-ligatures; text-align: start; background-color: rgb(10, 11, 11);&quot; class=&quot;css-x8zeb6&quot;&gt;&lt;/div&gt;&lt;div style=&quot;box-sizing: border-box; display: flex; line-height: initial; color: rgba(232, 230, 227, 0.65); font-family: &amp;quot;UI Sans&amp;quot;, Lato, Arial, sans-serif; font-variant-ligatures: no-common-ligatures; text-align: start; background-color: rgb(10, 11, 11);&quot; class=&quot;css-x8zeb6&quot;&gt;&lt;/div&gt;" style="text;html=1;strokeColor=none;fillColor=none;align=center;verticalAlign=middle;whiteSpace=wrap;rounded=0;" vertex="1" parent="1">
          <mxGeometry x="-940" y="3059.25" width="190" height="30" as="geometry" />
        </mxCell>
        <mxCell id="gog2KQi0PHtg9QcvCmXd-277" value="" style="shape=image;html=1;verticalAlign=top;verticalLabelPosition=bottom;labelBackgroundColor=#ffffff;imageAspect=0;aspect=fixed;image=https://cdn1.iconfinder.com/data/icons/iconoir-vol-3/24/question-mark-128.png;imageBackground=#000000;" vertex="1" parent="1">
          <mxGeometry x="-1035" y="3115.25" width="58" height="58" as="geometry" />
        </mxCell>
        <mxCell id="gog2KQi0PHtg9QcvCmXd-278" value="?, DHCP,&amp;nbsp;5a:e2:39:ea:1d:11&lt;br&gt;&lt;div style=&quot;box-sizing: border-box; display: flex; line-height: initial; color: rgba(232, 230, 227, 0.65); font-family: &amp;quot;UI Sans&amp;quot;, Lato, Arial, sans-serif; font-variant-ligatures: no-common-ligatures; text-align: start; background-color: rgb(10, 11, 11);&quot; class=&quot;css-x8zeb6&quot;&gt;&lt;/div&gt;&lt;div style=&quot;box-sizing: border-box; display: flex; line-height: initial; color: rgba(232, 230, 227, 0.65); font-family: &amp;quot;UI Sans&amp;quot;, Lato, Arial, sans-serif; font-variant-ligatures: no-common-ligatures; text-align: start; background-color: rgb(10, 11, 11);&quot; class=&quot;css-x8zeb6&quot;&gt;&lt;/div&gt;&lt;div style=&quot;box-sizing: border-box; display: flex; line-height: initial; color: rgba(232, 230, 227, 0.65); font-family: &amp;quot;UI Sans&amp;quot;, Lato, Arial, sans-serif; font-variant-ligatures: no-common-ligatures; text-align: start; background-color: rgb(10, 11, 11);&quot; class=&quot;css-x8zeb6&quot;&gt;&lt;/div&gt;&lt;div style=&quot;box-sizing: border-box; display: flex; line-height: initial; color: rgba(232, 230, 227, 0.65); font-family: &amp;quot;UI Sans&amp;quot;, Lato, Arial, sans-serif; font-variant-ligatures: no-common-ligatures; text-align: start; background-color: rgb(10, 11, 11);&quot; class=&quot;css-x8zeb6&quot;&gt;&lt;/div&gt;&lt;div style=&quot;box-sizing: border-box; display: flex; line-height: initial; color: rgba(232, 230, 227, 0.65); font-family: &amp;quot;UI Sans&amp;quot;, Lato, Arial, sans-serif; font-variant-ligatures: no-common-ligatures; text-align: start; background-color: rgb(10, 11, 11);&quot; class=&quot;css-x8zeb6&quot;&gt;&lt;/div&gt;&lt;div style=&quot;box-sizing: border-box; display: flex; line-height: initial; color: rgba(232, 230, 227, 0.65); font-family: &amp;quot;UI Sans&amp;quot;, Lato, Arial, sans-serif; font-variant-ligatures: no-common-ligatures; text-align: start; background-color: rgb(10, 11, 11);&quot; class=&quot;css-x8zeb6&quot;&gt;&lt;/div&gt;" style="text;html=1;strokeColor=none;fillColor=none;align=center;verticalAlign=middle;whiteSpace=wrap;rounded=0;" vertex="1" parent="1">
          <mxGeometry x="-935" y="3129.25" width="190" height="30" as="geometry" />
        </mxCell>
        <mxCell id="gog2KQi0PHtg9QcvCmXd-280" value="" style="points=[[0.13,0.02,0],[0.5,0,0],[0.87,0.02,0],[0.885,0.4,0],[0.985,0.985,0],[0.5,1,0],[0.015,0.985,0],[0.115,0.4,0]];verticalLabelPosition=bottom;sketch=0;html=1;verticalAlign=top;aspect=fixed;align=center;pointerEvents=1;shape=mxgraph.cisco19.laptop;fillColor=#005073;strokeColor=none;" vertex="1" parent="1">
          <mxGeometry x="-1029.25" y="3195.25" width="50" height="35" as="geometry" />
        </mxCell>
        <mxCell id="gog2KQi0PHtg9QcvCmXd-281" value="LAPTOP-G9RST62A, DHCP,&amp;nbsp;a0:d3:7a:bd:32:38&lt;div style=&quot;box-sizing: border-box; display: flex; line-height: initial; color: rgba(232, 230, 227, 0.65); font-family: &amp;quot;UI Sans&amp;quot;, Lato, Arial, sans-serif; font-variant-ligatures: no-common-ligatures; text-align: start; background-color: rgb(10, 11, 11);&quot; class=&quot;css-x8zeb6&quot;&gt;&lt;/div&gt;&lt;div style=&quot;box-sizing: border-box; display: flex; line-height: initial; color: rgba(232, 230, 227, 0.65); font-family: &amp;quot;UI Sans&amp;quot;, Lato, Arial, sans-serif; font-variant-ligatures: no-common-ligatures; text-align: start; background-color: rgb(10, 11, 11);&quot; class=&quot;css-x8zeb6&quot;&gt;&lt;/div&gt;&lt;div style=&quot;box-sizing: border-box; display: flex; line-height: initial; color: rgba(232, 230, 227, 0.65); font-family: &amp;quot;UI Sans&amp;quot;, Lato, Arial, sans-serif; font-variant-ligatures: no-common-ligatures; text-align: start; background-color: rgb(10, 11, 11);&quot; class=&quot;css-x8zeb6&quot;&gt;&lt;/div&gt;&lt;div style=&quot;box-sizing: border-box; display: flex; line-height: initial; color: rgba(232, 230, 227, 0.65); font-family: &amp;quot;UI Sans&amp;quot;, Lato, Arial, sans-serif; font-variant-ligatures: no-common-ligatures; text-align: start; background-color: rgb(10, 11, 11);&quot; class=&quot;css-x8zeb6&quot;&gt;&lt;/div&gt;&lt;div style=&quot;box-sizing: border-box; display: flex; line-height: initial; color: rgba(232, 230, 227, 0.65); font-family: &amp;quot;UI Sans&amp;quot;, Lato, Arial, sans-serif; font-variant-ligatures: no-common-ligatures; text-align: start; background-color: rgb(10, 11, 11);&quot; class=&quot;css-x8zeb6&quot;&gt;&lt;/div&gt;&lt;div style=&quot;box-sizing: border-box; display: flex; line-height: initial; color: rgba(232, 230, 227, 0.65); font-family: &amp;quot;UI Sans&amp;quot;, Lato, Arial, sans-serif; font-variant-ligatures: no-common-ligatures; text-align: start; background-color: rgb(10, 11, 11);&quot; class=&quot;css-x8zeb6&quot;&gt;&lt;/div&gt;" style="text;html=1;strokeColor=none;fillColor=none;align=center;verticalAlign=middle;whiteSpace=wrap;rounded=0;" vertex="1" parent="1">
          <mxGeometry x="-935" y="3195.25" width="190" height="30" as="geometry" />
        </mxCell>
        <mxCell id="gog2KQi0PHtg9QcvCmXd-282" value="" style="sketch=0;points=[[0.015,0.015,0],[0.985,0.015,0],[0.985,0.985,0],[0.015,0.985,0],[0.25,0,0],[0.5,0,0],[0.75,0,0],[1,0.25,0],[1,0.5,0],[1,0.75,0],[0.75,1,0],[0.5,1,0],[0.25,1,0],[0,0.75,0],[0,0.5,0],[0,0.25,0]];verticalLabelPosition=bottom;html=1;verticalAlign=top;aspect=fixed;align=center;pointerEvents=1;shape=mxgraph.cisco19.cell_phone;fillColor=#005073;strokeColor=none;" vertex="1" parent="1">
          <mxGeometry x="-539.5" y="3045.25" width="25" height="50" as="geometry" />
        </mxCell>
        <mxCell id="gog2KQi0PHtg9QcvCmXd-283" value="android-e4e04447f7f211bd,&amp;nbsp;DHCP,&amp;nbsp;3c:31:78:59:a4:77" style="text;html=1;strokeColor=none;fillColor=none;align=center;verticalAlign=middle;whiteSpace=wrap;rounded=0;" vertex="1" parent="1">
          <mxGeometry x="-465" y="3055.25" width="215" height="30" as="geometry" />
        </mxCell>
        <mxCell id="gog2KQi0PHtg9QcvCmXd-284" value="" style="points=[[0.03,0.03,0],[0.5,0,0],[0.97,0.03,0],[1,0.4,0],[0.97,0.745,0],[0.5,1,0],[0.03,0.745,0],[0,0.4,0]];verticalLabelPosition=bottom;sketch=0;html=1;verticalAlign=top;aspect=fixed;align=center;pointerEvents=1;shape=mxgraph.cisco19.workstation;fillColor=#005073;strokeColor=none;" vertex="1" parent="1">
          <mxGeometry x="-554.25" y="3115.25" width="50" height="40" as="geometry" />
        </mxCell>
        <mxCell id="gog2KQi0PHtg9QcvCmXd-285" value="DESKTOP-CNJV1JD,&amp;nbsp;DHCP,&amp;nbsp;5c:61:99:30:d5:81" style="text;html=1;strokeColor=none;fillColor=none;align=center;verticalAlign=middle;whiteSpace=wrap;rounded=0;" vertex="1" parent="1">
          <mxGeometry x="-465" y="3115.25" width="215" height="30" as="geometry" />
        </mxCell>
        <mxCell id="gog2KQi0PHtg9QcvCmXd-286" value="" style="points=[[0.03,0.03,0],[0.5,0,0],[0.97,0.03,0],[1,0.4,0],[0.97,0.745,0],[0.5,1,0],[0.03,0.745,0],[0,0.4,0]];verticalLabelPosition=bottom;sketch=0;html=1;verticalAlign=top;aspect=fixed;align=center;pointerEvents=1;shape=mxgraph.cisco19.workstation;fillColor=#005073;strokeColor=none;" vertex="1" parent="1">
          <mxGeometry x="-556" y="3175.25" width="50" height="40" as="geometry" />
        </mxCell>
        <mxCell id="gog2KQi0PHtg9QcvCmXd-287" value="DESKTOP-HUN77CO,&amp;nbsp;DHCP,&amp;nbsp;98:22:ef:c0:90:8f&lt;br&gt;(Not in connectwise)" style="text;html=1;strokeColor=none;fillColor=none;align=center;verticalAlign=middle;whiteSpace=wrap;rounded=0;" vertex="1" parent="1">
          <mxGeometry x="-465" y="3175.25" width="215" height="30" as="geometry" />
        </mxCell>
        <mxCell id="gog2KQi0PHtg9QcvCmXd-288" value="" style="points=[[0.03,0.03,0],[0.5,0,0],[0.97,0.03,0],[1,0.4,0],[0.97,0.745,0],[0.5,1,0],[0.03,0.745,0],[0,0.4,0]];verticalLabelPosition=bottom;sketch=0;html=1;verticalAlign=top;aspect=fixed;align=center;pointerEvents=1;shape=mxgraph.cisco19.workstation;fillColor=#005073;strokeColor=none;" vertex="1" parent="1">
          <mxGeometry x="-556" y="3225.25" width="50" height="40" as="geometry" />
        </mxCell>
        <mxCell id="gog2KQi0PHtg9QcvCmXd-289" value="DESKTOP-B2VQUU5,&amp;nbsp;DHCP,&amp;nbsp;f0:9e:4a:a6:ba:53" style="text;html=1;strokeColor=none;fillColor=none;align=center;verticalAlign=middle;whiteSpace=wrap;rounded=0;" vertex="1" parent="1">
          <mxGeometry x="-465" y="3225.25" width="215" height="30" as="geometry" />
        </mxCell>
        <mxCell id="gog2KQi0PHtg9QcvCmXd-290" value="" style="sketch=0;points=[[0.015,0.015,0],[0.985,0.015,0],[0.985,0.985,0],[0.015,0.985,0],[0.25,0,0],[0.5,0,0],[0.75,0,0],[1,0.25,0],[1,0.5,0],[1,0.75,0],[0.75,1,0],[0.5,1,0],[0.25,1,0],[0,0.75,0],[0,0.5,0],[0,0.25,0]];verticalLabelPosition=bottom;html=1;verticalAlign=top;aspect=fixed;align=center;pointerEvents=1;shape=mxgraph.cisco19.cell_phone;fillColor=#005073;strokeColor=none;" vertex="1" parent="1">
          <mxGeometry x="-1019.4300000000001" y="3265.25" width="25" height="50" as="geometry" />
        </mxCell>
        <mxCell id="gog2KQi0PHtg9QcvCmXd-291" value="galaxy-a32-5g,&amp;nbsp;DHCP,&amp;nbsp;da:6c:48:c9:fc:5a" style="text;html=1;strokeColor=none;fillColor=none;align=center;verticalAlign=middle;whiteSpace=wrap;rounded=0;" vertex="1" parent="1">
          <mxGeometry x="-944.4300000000001" y="3265.25" width="215" height="30" as="geometry" />
        </mxCell>
        <mxCell id="gog2KQi0PHtg9QcvCmXd-294" value="" style="shape=image;html=1;verticalAlign=top;verticalLabelPosition=bottom;labelBackgroundColor=#ffffff;imageAspect=0;aspect=fixed;image=https://cdn1.iconfinder.com/data/icons/iconoir-vol-3/24/question-mark-128.png;imageBackground=#000000;" vertex="1" parent="1">
          <mxGeometry x="1930" y="1081" width="58" height="58" as="geometry" />
        </mxCell>
        <mxCell id="gog2KQi0PHtg9QcvCmXd-295" value="?(IBM),&amp;nbsp;10.224.52.3/24, 00:0D:60:F3:38:68&#x9;&lt;br&gt;(connected to Netgear GS752TPv2)&amp;nbsp;" style="text;html=1;strokeColor=none;fillColor=none;align=center;verticalAlign=middle;whiteSpace=wrap;rounded=0;" vertex="1" parent="1">
          <mxGeometry x="2000" y="1100" width="220" height="30" as="geometry" />
        </mxCell>
        <mxCell id="gog2KQi0PHtg9QcvCmXd-296" value="" style="shape=image;html=1;verticalAlign=top;verticalLabelPosition=bottom;labelBackgroundColor=#ffffff;imageAspect=0;aspect=fixed;image=https://cdn1.iconfinder.com/data/icons/iconoir-vol-3/24/question-mark-128.png;imageBackground=#000000;" vertex="1" parent="1">
          <mxGeometry x="1930" y="1156" width="58" height="58" as="geometry" />
        </mxCell>
        <mxCell id="gog2KQi0PHtg9QcvCmXd-297" value="?(Ipitomy),&amp;nbsp;10.224.52.25/24,&amp;nbsp;&lt;br&gt;00:0D:60:F3:38:68" style="text;html=1;strokeColor=none;fillColor=none;align=center;verticalAlign=middle;whiteSpace=wrap;rounded=0;" vertex="1" parent="1">
          <mxGeometry x="2000" y="1170" width="220" height="30" as="geometry" />
        </mxCell>
        <mxCell id="gog2KQi0PHtg9QcvCmXd-298" value="" style="points=[[0.03,0.03,0],[0.5,0,0],[0.97,0.03,0],[1,0.4,0],[0.97,0.745,0],[0.5,1,0],[0.03,0.745,0],[0,0.4,0]];verticalLabelPosition=bottom;sketch=0;html=1;verticalAlign=top;aspect=fixed;align=center;pointerEvents=1;shape=mxgraph.cisco19.workstation;fillColor=#005073;strokeColor=none;" vertex="1" parent="1">
          <mxGeometry x="1934" y="1230" width="50" height="40" as="geometry" />
        </mxCell>
        <mxCell id="gog2KQi0PHtg9QcvCmXd-299" value="DESKTOP-ATH9F83&#x9;&amp;nbsp;10.224.52.200/24,&amp;nbsp;&lt;br&gt;C0:3F:D5:03:38:86&#x9;" style="text;html=1;strokeColor=none;fillColor=none;align=center;verticalAlign=middle;whiteSpace=wrap;rounded=0;" vertex="1" parent="1">
          <mxGeometry x="2000" y="1235" width="220" height="30" as="geometry" />
        </mxCell>
        <mxCell id="gog2KQi0PHtg9QcvCmXd-300" value="" style="shape=image;html=1;verticalAlign=top;verticalLabelPosition=bottom;labelBackgroundColor=#ffffff;imageAspect=0;aspect=fixed;image=https://cdn1.iconfinder.com/data/icons/iconoir-vol-3/24/question-mark-128.png;imageBackground=#000000;" vertex="1" parent="1">
          <mxGeometry x="1930" y="1290" width="58" height="58" as="geometry" />
        </mxCell>
        <mxCell id="gog2KQi0PHtg9QcvCmXd-301" value="?(Grandstream),&amp;nbsp;10.224.52.248/24,&amp;nbsp;&lt;br&gt;00:0B:82:53:82:6C&#x9;" style="text;html=1;strokeColor=none;fillColor=none;align=center;verticalAlign=middle;whiteSpace=wrap;rounded=0;" vertex="1" parent="1">
          <mxGeometry x="2010" y="1300" width="220" height="30" as="geometry" />
        </mxCell>
      </root>
    </mxGraphModel>
  </diagram>
</mxfile>
